<?xml version="1.0" encoding="UTF-8"?>
<svg id="Layer_1" xmlns="http://www.w3.org/2000/svg" version="1.1" viewBox="0 0 794 794">
  <!-- Generator: Adobe Illustrator 30.3.0, SVG Export Plug-In . SVG Version: 2.1.3 Build 182)  -->
  <defs>
    <style>
      .st0 {
        fill: #0eb7ed;
      }

      .st1 {
        fill: #edac53;
      }

      .st2 {
        fill: #090f14;
      }

      .st3 {
        fill: #020204;
      }

      .st4 {
        fill: #0f83bb;
      }

      .st5 {
        fill: #43697b;
      }

      .st6 {
        fill: #84acbb;
      }

      .st7 {
        fill: #fefefe;
      }

      .st8 {
        fill: #edeeed;
      }
    </style>
  </defs>
  <path class="st2" d="M308.01,209.26l-5.13,3.13-4.14,9.99,1.26,15.5s9.16,16.18,9.42,16.23,11.62,21.74,11.62,21.74l12.83,19.55,14.7,11.32,21.28,7.33h34.69s25.91-16.25,27.74-16.85,14.64-18.73,14.64-18.73l8.84-20.34,4.18-24.6,8.96-4.85s4.08-5.83,4.55-6.66.41-8.56.41-8.56l-4.96-8.63-8.97-1.44-75.09,3.1-76.83,2.77Z"/>
  <g>
    <path class="st2" d="M499.76,90.28l3.29,1.94,2.75,1.89,6.56,4.57c10.35,7.21,20.03,15.7,27.52,26.41,4.95,7.07.97,15.27-6.59,20.63,36.66,34.79,88.71,102.04,59.61,150.16l-1.34,1.88c-12.41,18.01-33.05,28.23-55.57,24.22-15.92-1.65-30.32-7.16-44.32-13.56l-1.9-1.14-2.78-1.65-4.78-1.81c.19-1.09-2.04-2.91-3.12-3.05-3.55-.46-9.23,11.33-11.8,4.44l-4.44,6.51-5.24,4.12-3.18,1.23c-.84.33,0,3.34.24,4.02,5.03,14.23,14.44,26.36,30.27,28.64-3.21,3.3-6.29,3.83-10.3,5.06,18.51,7.46,51.74.32,58.08,14.98,14.59-1.24,30.37,2.56,38.85,14.66,6.69,9.53,1.25,22.08-8.64,28l-2.98,32.51c3.76,4.62,6.18,9.43,4.61,16.02-1.08,4.55-4.24,9.31-9.32,12.62l-7.12,64.51-15.4,128.68c6.01,7.97,4.7,17.34-2.39,23.61l-3.35,25.24c7.17,9.86,3.77,21.56-5.97,28.81-11.82,8.79-26.1,13.33-41.42,16.56-53.59,11.32-109.88,11-163.38-.79-25.65-5.66-58.73-20.19-47.31-46.94l-3.09-22.69c-7.05-7.02-7.56-16.73-1.51-24.55l-6.45-44.11-14.95-143.98c-.28-2.73-3.97-5.81-5.41-7.96-5.09-7.62-2.02-15.11,1.39-21.79l-2.79-31.93c-8.66.23-16.76-5.62-20.71-11.23l-1.43-2.04-4.99-11.11-2.15,5.5c-.26.66-2.2.72-2.53.08l-1.68-3.3c-1.08-9.48-1.86-18.62-3.58-27.62-1.79,3.52-2.74,5.67-4.27,6.72-4.25-10.87-7.3-21.03-15.62-28.43-20.48-2.42-34.51-5.9-41.3-26.96-4.71-2.07-9.05-5.27-11.3-10.49-5.94-14.66-3.19-30.82,6.59-43.28-2.06-15.04,4.42-29.39,17.43-36.37,1.18,1.16,3.08,2.74,3.84,2.19s1.76-2.25,2.29-3.37c1.85-8.89,9.84-13.28,18.34-14.25,6.72-7.7,16.42-9.64,25.34-5.11,7.76-4.15,15.35-2.39,19.73,4.55,8.83,1.91,16.67,7.14,19.88,15.34-.51,5.24,1.65,9.28,5.83,12,5.26,3.7,7.21,9.67,4.81,15.76,2.92,6.35,2.38,13.11-1.3,19.47l9.66.84.54.06c-1.85,7.09-11.54,15.48-4.56,18.98-1.27,7.51-4.92,14.84-9.87,22.18-.39,8.29.28,16.66,2.74,25.06l5.52-5.67c3.18,16.33,16.47,23.09,30.81,25.59l1.84.07c.18.14,1.44.96,1.57.54l.55-1.79c1.84.27,5.36.07,6.73-.6l-4.71-1.2c-.58-.15.2-1.9.05-2.48,13.09-4.62,26.26.64,36.51-6.91-3.23-1.51-5.05-2.35-6.2-3.56,8.82-4.13,15.17-10.37,16.24-19.52-4-6.13-11.54-10.14-18.43-10.94l-4.42-4.99c-3.73-.26-6.27-1.23-8.9-3.08-6.08-5.79-8.78-12.98-11.65-20.19-7.28-3.2-4.78-14.36-8.47-19.2-5.68-7.44-3.46-15.71-.51-24.61-.89-4.61-1.18-12.58-3.18-16.97-4.74-10.41,2.68-18.93,7.11-28.24,2.98-6.24,9.75-8.82,17-12.13l-3.95-1.32c6.76-6.95,14.57-10.17,23.67-11.1-2.23-8.13-1.08-15.24.98-22.79-11.32-17.38-19.72-38.39-15.62-59.04,3.22-16.22,16.56-27.44,28.91-36.89,10.45-8,21.45-11.06,34.51-7.98,34.89,8.21,66.51,24.69,94.78,47.46,6.1-10.31,15.83-11.78,25.41-6.69l5.78,3.07ZM348.8,66.29l1.35-.05,4.72.05.86-.05,1.7-.27c10.79,1.89,21.33,4.28,31.19,8.65,6.68,2.95,13.72,5.63,19.9,10.71-23.05-8.33-45.78-18.12-68.57-13.67,52.94-.33,123.74,49.74,161.71,84.71,35.05,32.28,75.76,79.52,77.19,128.42.16,5.62-1.68,11.35-2.96,17.63,10.49-8.48,16.81-20.59,17.87-33.79,1.51-18.74-6.06-37.07-15.3-54.13-15.06-27.82-36.24-50.86-58.52-72.38-20.28-19.59-42.42-37.7-66.86-53.15-15.2-9.61-31.09-16.56-46.96-23.6-10.82-4.8-22.31-8.37-33.89-11.45-15.19-4.04-23.31,3.52-35.54,14.06l12.11-1.69ZM339.18,134.9c-8.52-18.5-10.81-39.52,1.36-56.54-5.85-.88-12.98,1.43-17.26,5.63-13.21,12.96-3.85,40.41,6.15,58.8l9.75-7.88ZM348.52,132.18c12.48-3.69,24.99,2.97,33.64,13.92,8.1-16.55,24.91-22.69,40.99-16.53,15.59,5.97,24.15,22.43,19.57,39.69,8.4.07,15.85.56,22.02,6.78l-6.01,3.54c6.26,1.52,14.4,1.53,15.62,8.69,11.79,4.36,16.18,15.45,15.15,27.52-.37,4.37,2.22,9.39.17,14.14,7.91,10.22,8.47,23.11,5.11,36.14l-4.19,9.26c-.81,1.68-2.05,4.01-2.06,6.1,18.73,9.23,38.45,17.75,59.18,17.64,11.98-.06,23.87-6.79,24.2-18.58.3-10.67-3.45-20.35-7.37-30.04-27.58-68.33-107.18-129.92-173.11-160.73-13.62-6.36-27.28-10.75-41.86-11.91-6.39-.51-10.97,6.57-12.35,12.37-3.54,14.84-.03,29.98,5.12,43.83l6.19-1.83ZM474.95,92.94l-2.86,2.88,7,5.34,5.95-7.41c15.78,10.77,30.96,21.74,44.43,36.39l-5.29,6.41c.59,2.32,2.88,5.87,4.9,5.26,1.79-.54,3.98-3.63,5.2-5.21,1.09-1.4,2.41-3,2.97-4.29s-.56-5.02-1.53-6.12c-13.95-15.84-30.51-29.14-49.89-38.07-4.04-1.86-8.75,2.68-10.89,4.84ZM519.14,134.4c1.96-1.63,3.16-2.83,4.47-4.56-11.81-11.07-23.4-20.13-36.44-29.59-2.1,1.15-3.9,2.9-4.39,4.43,12.9,9.83,24.1,19.09,36.36,29.72ZM387.45,179.01l2.47,3.15c8.84,9.29,23.47,11.16,34.87,4.45,11.15-6.55,17.2-19.62,13.74-33.32-2.96-11.74-13.94-21.68-27.5-21.47-11.27.17-20.71,6.68-25.22,15.73-5.07,10.18-4.41,22.07,1.63,31.46ZM381.71,173.81c-3.15-8.27-3-15.14-.93-22.56-8.44-13.99-26.52-19.7-40.58-11.09-9.32,5.71-13.65,16.28-12.69,26.6s6.83,19.74,16.78,23.84c14.93,6.16,32.57-.97,37.41-16.8ZM428.99,190.48c-15.79,7.55-36.14,4.79-45.42-11.03-5.8,6.56-9.95,12.58-16.68,15.67l-.93-.21c-8.54,2.56-17.82,1.76-26.09-1.57-5.27-4.33-10.15-7.6-12.45-15.11-3.65-.67-7.92-.28-11.42.61-2.85.73-5.92,2.25-8.81,3.67l3.78,1.96c.75.39.76,2.5-.01,2.84l-3.08,1.63c-2.88.38-6.43,1.48-8.86,2.77l-1.9,1.01c-.45.24-1.64,1.75-1.14,1.83l4.19.67c-8.64,5.02-14.61,13.42-16.59,24.19l8.77-5.84c-7.84,11.39-6.79,24-4.53,23.96l3.59-.07c-2.82,6.99-6.26,14.39-6.04,22.01,1.86,1.9,3.46,4.25,3.92,6.25l-.32,1.31.11,2.01c.11,2.07,1.59,4.71,1.68,3.51.06-.85.24-3.01.53-3.53l3.33-6.02,1.2,2.08c-1.94,8.67-1.59,18.33,3.08,25.95l2.23,3.05-.23.95,6.69,8.59.9-12.15,4.52,10.76-.08.67c-.07.57.65,1.91,1.11,2.32l6.08,5.31-1.26-4.71,3.05-.4c9.1,12.23,22.06,21.8,38.29,23.73l-4.74-6.98,4.96.8c9.93,6.81,22.54,5.94,34.49,6.16,7.38.14,12.08-.16,18.63-3.61,5.88-3.09,14.93-7.82,18.77-11.97l1.9.47-.46,2.43-10.2,10.91c14.12-2.5,24.64-11.84,33.4-21.15l1.13,1.05-.26,3.2c6.94-4.33,10.55-12.48,11.1-18.98l-.23-2.44c1.57.22,2.85,3.83,3.04,5.76l.59,5.75,3.7-5.43,1.8-2.73c.72-.86,1.78-2.41,2.3-3.47,4.43-9.03,6.13-17.86,1.6-28.07,2.36.48,3.79,2.26,4.36,3.99l2.49,7.55c.47-2.38.94-5.73.58-7.81l-1.98-11.54c1.77-.02,3.85,2.51,5.47,5.07,1.91-11.07-1.76-20.7-7.34-29.2,4.65-7.21-.21-14.13-2.51-20.8l2.58-.21c.47-.02.57-1.75.18-2.05l-1.37-1.06-.2-.69-.64-1.52c-3.25-7.73-11.98-12.64-20.28-13.67l-5.86-.63,8.24-4.12c-7.41-2.72-12.56-3.28-19.9-3.67l5.86-5.06c-11.86-4.67-12.17,5.01-22.4,14.99ZM167.09,219.59l-1.25,1.38-.84.95c-2,1.38-4.64,3.42-2.97,7.02,1.64-1.74,2.69-4.04,3.05-5.92,7.62,10.33-7.48,8.49-7.26,18.49,4.99.33,9.31,1.4,10.53,5.55,1.06,3.63,0,7.66-3.79,11.06,5.84,1,10.61,1.77,15.54,4.67l-13.04,5.2.3,14.15c4.31-.61,7.41.02,9.22,2.82,1.3,2.02,1.31,5.96-.1,8.01-2.08,3.03-6.24,2.57-8.82.85l-1.07,1.22c.96,2.64,4.78,4.87,7.86,6.87,2.44,1.59,4.81,5.59,7.43,5.86,3.68.39,7.59-1.13,11-1,2.52.09,6.33,2.86,9.46,2.7s4.94-1.74,6.88-4.04c7.91,4.48,13.88-3.97,16.55-10.47l6.87,1.45c1.9.4,4.73-2.12,5.02-4.91-4.45-2.5-7.54-6.95-6.25-12,1.18-4.61,7.74-7.27,13.22-6.52,3.9-2.24,4.09-10.45,1.93-14.35-3.73-2.24-5.96-4.46-7.75-7.42-.9-4,.06-8.33,1.12-11.82-7.65-7.13-1.26-18.57-19.79-23.4-2.29,4.34-6.33,5.77-10.89,4.27s-7.71-4.31-7.37-9.89l-6.14,2.02c-1.42.47-2.55.31-3.07-2.73-5.15-1.07-9.89,1.99-14.22,6.08l-11.36,3.84ZM152.05,253.74c.8-7.95,2.16-14.91,4.62-21.26-4.13,2.72-8.03,3.81-10.83,4.39-6.76,5.11-9.52,15.95-9.99,24.04,5.26-2.85,10.66-5.13,16.19-7.17ZM158.7,335.52c7.58,3.14,15.96,4.63,24.2,6.03,5.96,1.01,12.9.48,18.06,6.36-4.17.95-8.37-.87-13.76-1.23l7.21,14.99c.18.37.77,1.44.98,1.22l2.42-2.43c4.15,5.23,6.36,12.14,7.08,18.75l1.05,9.52,2.26-5.58c.22-.55,1.13-1.76,1.51-2.19.51-.57,1.7,1.81,1.65,2.49-.6,11.44,9.55,21.87,20.91,26-2.31-6.07-4.71-12.06-3.02-17.74,2.99-10.05,13.64-16.4,23.52-18.81l5.27-1.79,3.9-.17,2.31,2.42c-.15,0-.93-.05-1.17,0-5.03,1.19-13.61,4.34-18.78,7.6-6.61,4.17-12.73,11.23-9.57,19.49,2.37,6.19,9.02,11.03,15.29,13.47,18.91,7.34,38.19,11.48,57.7,14.57,32.12,5.09,64.71,7.15,97.26,6.4l.37,4.13c-32,.35-63.33-.64-95.08-5.21-19.66-2.83-38.43-6.32-56.97-12.93l-9.64-4.21,3.54,32.36,8.33,3.25c18.51,5.58,36.75,9.81,56.09,12.44,38.2,5.2,75.54,6.9,114.87,5.59l2.88-13.06c-5.82.99-5.29,6.21-8.61,10.58-5.52-9.83-3.25-20.64,2.23-28.97l-6.63.04-.39-4.26,10.08-.51,4.42-10.43c-41.74,1.16-82.35,1.76-122.46-3.71-20.67-2.82-41.39-6.02-61-13.85-6.27-2.51-11.84-7.36-9.63-14.44,2.32,12.6,41.84,20.12,55.72,21.31l14.3,1.22c1.66-5.44,3.71-10.61,6.55-15.66-1.42-3.87-.64-6.91,2.41-10.31l14.16-8.85c1.05-.66,3.16-2.65,3.98-3.66.62-.76-10.49-17.92,12.63-31.9l-2.01,4.95-6.11,6.93c-.41.46-1.07,1.58-1.27,2.13l-.72,1.88-1.2.79c-.46.31.05,2.49.59,2.34l2.41-.66-1.98,16.92c-5.65,4.67-12.64,8.38-19.09,13.14l7.04.87c-6.7,6.98-11.7,12.54-13.12,22.53,42.37,4.77,84.77,6.1,126.09,2.15l7.3-4.93c5.77-2.02,13.18-2.14,17.41-5.61,8.24-6.76,16.16-11.96,25.25-17.17l-1.74,5.7c-.32,1.05,2.68,1.21,3.74,1.07l3.28-.85,2.01-.05,3.28.13c.6.02,1.61.7,1.12,1.02l-2.61,1.81c-5.75.84-11.6,3.79-17.05,6.08-3.62-4.14-7.89.5-10.43,2.01-.81.48-3.26,1.03-3.11,1.89l.68,3.79c-4.41.04-8.82.45-12.16,1.76-13.23,5.19-19.61,9.64-24.13,22.44-1.34,3.79-7.37,6.72-5.82,12.46l7.17,1.53,6.79-8.08,2.2-.66c.38-.23.53.21,1.26,1.31-7.88,9.37-12.08,21.06-10.35,33.04l2.58,9.55,3.13-5.24,1.57,5.59c.34,1.2,4.36.41,5.58-.08.38-9.17,2.19-17.46,5.61-25.79l1.65.25c1.41.72,1.82,3.08.97,5.03-5.14,11.77-5.6,24.04-.29,35.3l2.38-8.01c1.24-.37.73-1.36,2.14.85.58,1.05.37,2.31-.47,3.16,4.76,9.74,18.11,5.86,22.5.3-1.4-7.7-2.9-14.69-2.08-21.65.72-6.13,3.89-11.94,7.87-16.56l1.34.26c.44.09.36,1.18-.11,2.02-5.69,11.17-8.29,31.84,2.64,41.39,1.48-4.51.25-10.77,5.06-9.21-1.29-.02-.49,3.29.33,3.55,9.36-3.7,16.78-13.63,18.9-23.47l2.41,2.02c.35.3,1.48-1.61,1.47-2.12l-.1-11.48-.09-1.38-.24-2.58-.62-1.24-.15-1.97,1.81-4.54,1.37,3.97c.24.68,2.52.78,2.85.12.42-.83,1.24-2.58,1.34-3.53l1.37-13.53c.47-4.7.83-8.93,4.27-11.96l-1.1,14.91c10.42-3.7,11.36-12.66,15.01-22.16l1.83,6.8c.9,3.33,20.52-9.87,9.69-32.41-5.85-9.38-15.35-15.67-27.55-13.21l-.83-2.7,2.92-.51c.6-.11.97-1.57.37-1.71l-3.92-.95-8.56-2.32c2.54-1.38,4.68-2.03,8.82-3.39-21.16-7.21-43.06-.32-64.73-15.94.25-1.36.26-2.76.87-2.64l4.21.77,2.55.46c.55.1,1.61-.83,1.3-1.29-3.59-5.34-14.96-9.67-19.93-30.09l-21.44,11.83c-4.66,2.57-9.92,2.26-13.66-1.3-15.36,7.57-31.02,6.61-45.86,1.33-9.1,5.2-18.97.02-28.16-3.85-1.67,4.21-3.37,8.97-5.75,11.88l-4.12,5.03c1.98-.52,4.45-1.54,6.1-2.97l2.28-.62c.39-.11.51.14.38.56l-.84,2.69c-7.98,11.21-20.91,13.81-35.76,13.97l5.58,3.8c-8.24,1.5-17.04,1.71-22.39,7.7l-3.19-1.17c.49,0,1.21-2.3.65-2.36l-3.25-.32-13.08-4.55-9.95-8.03c-4.25,4.91-5.01-4.22-5.48-8.37l-2.1,5.47c-9.78-8.56-7.19-27.33-9.19-26.68l-4.65,1.51c4.67-8.72,11.99-17.3,14.34-27.58-1.3-2.1-2.55-5.17-1.5-7l.21-2.05,3-6.02,2.07-2.79c.39-.53-.96-.99-2.8-1.3l-9.78,11.43c-.76,2.68-1.54,6.5-3.52,7.96-2.75,2.02-5.21,2.5-9.57,2.06l-7.36,9.97-5.2,1.94c5.12,4.13,7.72,7.44,9.3,12.67l-2.36,1.04c-2.67-4.53-6.88-8.17-11.38-10.37-6.02-2.95-10.29-.36-19.13-3.68-6.44,1.07-12.37,2.13-17.48-3.5l-10.87,6.76c1.02-7.55,1.81-14.01-2.02-20.73-3.51,2.67-6.96,5.77-11.98,4.5,22.66-13.01,5.54-27.45,19.49-35.91-5.11-.99-11.33,2.43-13.49-3.42-10.37-1.07-20.4,6.08-24.5,16.68-4.72,12.53-4.87,27.15,4.01,37l2.48-5.92c3.2,13.55,9.13,24.21,20.84,29.05ZM572.96,288.8c-17.63,27.09-60.43,9.4-86.08-4.44l-5.19,10.74c20.15,11.17,41.35,19.35,64.1,20.13,15.69.54,28.13-10.8,27.16-26.43ZM166.1,293.69l1.03-.48-1.03.48ZM167.48,308.04c1.51-.58,4.12-2.65,3.37-3.34l-3.24-2.99-.13,6.33ZM471.5,350l-.5.5.5.5.5-.5-.5-.5ZM533.52,374.92c15.86,1.22,27.35,12.61,28.46,29.43,3.16-2.42,5.87-5.8,6.29-8.97,1.6-12.24-21.1-23.28-34.75-20.46ZM525.02,457.28c9.33-2.68,18.51-5.94,27.04-10.1l2.25-21.42-10.86,4.84c-3.02,6.57-8.86,12.1-15.6,15.1l-2.83,11.57ZM552.3,468.52c4.53-5.16,7.47-12.02,4.13-18.15-11.88,4.91-23.03,9.86-34.97,12.29l-2.01,15.51,32.84-9.65ZM257.44,474.09c17.95,5.14,35.36,8.06,53.92,10.48,39.4,5.13,78.49,6.02,119.13,3.84l-3.65-13.66c-38.33,1.5-76.14-.35-114.16-5.18-19.04-2.42-37.13-5.63-55.15-11.8l-13.72-4.7c-2.82,4.99-2.07,9.98.99,14.57,2.24,3.36,7.9,5.1,12.63,6.45ZM466.63,507.05l-9.5-2.02.39,9.34c-7.14-5.83-9.49-14.22-12.05-22.6-1.82-.24-4.47-.49-5.55-.3-1.26.22-.22,4.09.2,6.18-2.05,1.13-4.44-1.32-5.59-4.8-40.65,2.03-80.55,1.81-120.85-3.33-18.58-2.37-36.19-4.99-54.3-10.1l-9-2.54,21,189.53,8.2,3.76c14.78,6.78,29.78,10.51,46.04,13.41,40.78,7.28,81.9,7.92,122.91,2.88,26.74-3.29,52.88-9.16,77.53-21.91l21.24-189.07c-11.39,3.37-21.74,6.02-33.09,7.59-3.49,9.36-10.83,16.57-20.61,18.55l.55,10.97c-5.7-2.71-8.77-6.55-11.94-11.28-4.61,3.57-10.16,6.88-15.58,5.73ZM446.96,691.17c-39.95,4.66-79.68,3.84-119.49-2.67-16.13-2.64-31.03-6.47-45.86-12.71l-12.85-5.41c-1.8,4.64-2.41,9.71.18,14.13,1.77,3.03,7.18,5.44,11.6,7.14,15.81,6.08,32.31,10.03,48.71,12.62,37.98,5.98,76.43,6.97,115.18,3.65,26.07-2.24,50.87-7.25,74.53-17.78,3.98-1.77,7.56-4.44,8.76-7.15,2.09-4.76,2.32-9.19-1.12-13.7-25.25,12.56-51.76,18.64-79.64,21.89ZM283.46,724.57c16.21,8.64,33.38,14.86,51.82,18.02,34.63,5.93,70.16,5.87,104.68,2.09,25.02-2.74,60.44-9.45,79.34-26.36l2.93-24.77c-25.21,11.95-50.8,16.29-77.91,18.66-38.21,3.33-75.91,2.21-113.9-3.37-16.26-2.39-31.62-5.64-46.84-11.35l-10.01-3.75,3.65,27.5,6.25,3.33ZM434.89,749.69c-33,2.56-65.8,3.05-98.46-2.5-18.4-3.13-36.24-7.7-52.09-17.1l-7.18-4.26-1.46-2.18c-.35-.53-2.86-.86-2.61-.27l1.51,3.5c1.84,4.28,4.56,8.79,8.95,11.41,15.61,9.3,32.88,14.1,51.17,17.4,34.33,6.19,69.06,6.68,103.81,3.42,23.37-2.19,85.66-12.26,85.48-37.7-23.66,19.27-59.36,25.98-89.12,28.29Z"/>
    <path class="st8" d="M457.61,315.84c-.36,1.42.63,5.87,2.87,2.68.49,10.16,8.43,14.99,15.41,23.67l12.52,2.62,4.52,9.37c7.1,1.09,14.73,1.74,22.09.47,8.17.96,15.32,4.24,22.56,8.85,9.28,1.09,19.7.88,26.46,8.1,8.25,3.42,14.24,10.49,15.46,18.65,1.46,9.8-3.44,18.37-11.22,24.74l-2.03,19.43c-.5,4.79-1.87,8,2.09,14.09l2.47,4.28c-.29,2.5-.97,7.79-1.72,11.29-1.23,4.51-5.43,8.95-8.4,12.79l-16.11,142.62-5.75,46.21c5.23,9.58,3.77,20.03-3.46,27.8l-2.12,20.88c7.57,13.17,1.47,27.69-11.17,36.07-13.41,8.89-28.69,13.39-45.09,16.72-52.21,10.59-105.9,9.78-158.09-.82-11.27-2.29-21.05-5.97-30.72-9.87,3.08-2.96-1.76-5.07-1.01-.54l-11.75-7.42c-11.25-8.23-18.05-21.8-12.23-35.64l-2.68-21.39c-7.08-6.99-8.18-16.97-1.96-25.75l-7.01-51.43-14.3-136.8,5.67.41,14.95,143.98,6.45,44.11c-6.05,7.82-5.54,17.53,1.51,24.55l3.09,22.69c-11.42,26.76,21.66,41.29,47.31,46.94,53.5,11.79,109.78,12.11,163.38.79,15.32-3.24,29.6-7.77,41.42-16.56,9.75-7.25,13.14-18.95,5.97-28.81l3.35-25.24c7.09-6.27,8.41-15.64,2.39-23.61l15.4-128.68,7.12-64.51c5.08-3.32,8.24-8.07,9.32-12.62,1.56-6.58-.85-11.39-4.61-16.02l2.98-32.51c9.89-5.91,15.32-18.46,8.64-28-8.48-12.1-24.26-15.89-38.85-14.66-6.34-14.65-39.57-7.52-58.08-14.98,4.01-1.22,7.1-1.76,10.3-5.06-15.83-2.28-25.24-14.41-30.27-28.64-.23-.68-1.09-3.69-.24-4.02l3.18-1.23Z"/>
    <path class="st8" d="M257.49,333.35c-.09,2.72.94,5.64,2.52,7.65,6.4,8.13,14.02,14.06,25.45,14.55l-1.32,5.81c-14.33-2.5-27.63-9.27-30.81-25.59l-5.52,5.67c-2.46-8.41-3.13-16.77-2.74-25.06,4.95-7.34,8.6-14.67,9.87-22.18-6.98-3.5,2.71-11.89,4.56-18.98l2.9-.18c.57-.03.21-1.45-.37-1.57l-2.52-.5c-.58-.11-.61,1.83-.55,2.19l-9.66-.84c3.68-6.36,4.22-13.12,1.3-19.47,2.4-6.09.45-12.06-4.81-15.76-4.18-2.72-6.34-6.76-5.83-12-3.21-8.2-11.05-13.43-19.88-15.34-4.38-6.95-11.97-8.71-19.73-4.55-8.91-4.54-18.62-2.59-25.34,5.11-8.5.97-16.49,5.36-18.34,14.25-.54,1.12-1.53,2.82-2.29,3.37s-2.66-1.03-3.84-2.19c-13.02,6.98-19.5,21.32-17.43,36.37-9.78,12.45-12.53,28.62-6.59,43.28,2.24,5.22,6.59,8.42,11.3,10.49,6.79,21.07,20.83,24.54,41.3,26.96,8.33,7.39,11.37,17.56,15.62,28.43,1.53-1.05,2.48-3.2,4.27-6.72,1.71,9.01,2.5,18.15,3.58,27.62l1.68,3.3c.33.64,2.27.58,2.53-.08l2.15-5.5,4.99,11.11-3.27,2.55-9.64-3.41c-4.97-6.57-5.12-15.06-5.1-23.02-10.5-2.55-7.05-16.36-18.64-29.25-20.11-1.09-37.46-9.71-43.92-28.42-7.93-3.51-12.5-10.99-14.29-19.44-3.94-13.76,1.53-26.12,7.55-38.09,1.52-7.92-.22-18.06,6.27-24.19,4.2-8.53,9.92-15.78,19.33-18.18,3.86-8.53,11.73-13.14,20.56-14.6,7.89-8.01,18.65-9.91,29.06-5.58,7.47-3.6,15.75-2.32,20.28,4.83,13.18,2.71,20.65,12.89,24.91,25.06,2.67,4.22,8.92,8.41,9.39,14.28l1.89,23.6c4.05,1.55,7.18,3.77,7.33,7.72.11,2.89-2.72,6.13-5.87,8.61,4.48,20.18-13.99,28.04-7.99,44.81,1.88.71,4.77,1.9,5.7,3.11ZM238.5,217l-.5.5.5.5.5-.5-.5-.5ZM207.35,398.3c-.04,1.81.27,4.07,1.08,3.87l2.92-.72c.82-.2-.71-2.43-1.53-2.61l-2.47-.54Z"/>
    <path class="st8" d="M499.76,90.28l-5.78-3.07c-9.59-5.09-19.31-3.62-25.41,6.69-28.27-22.77-59.89-39.25-94.78-47.46-13.06-3.07-24.05-.02-34.51,7.98-12.34,9.45-25.69,20.67-28.91,36.89-4.1,20.66,4.29,41.66,15.62,59.04-2.06,7.55-3.2,14.67-.98,22.79-9.11.93-16.92,4.15-23.67,11.1l3.95,1.32c-7.24,3.31-14.02,5.89-17,12.13-4.44,9.3-11.85,17.83-7.11,28.24,2,4.39,2.29,12.37,3.18,16.97-2.96,8.9-5.17,17.17.51,24.61,3.69,4.83,1.19,15.99,8.47,19.2,2.87,7.2,5.58,14.4,11.65,20.19l-1.9,2.43c-.12.2,0,.42.15.94l.8.22.48.49.52.52.81.82c.13-.07-.93.48-1.09.57l-.5-.43-.84-.69-.18-.14-.35-1.07-.81-.66c-4-2.33-6.3-6.59-9.06-10.9l-5.56-8.68,2.58-.72c.37-.1-.53-.9-.91-.96l-2.79-.45c-1.83-4.52-3.75-11.58-6.15-16.29-10.7-20.98,2.34-25.37-3.44-39.9-4.38-11.01-3.31-24.07,6.11-32.27.48-7.21,5.7-11.86,11.48-14.77,4.34-9.29,14.49-12.89,23.49-16.31-.04-6.01.75-11.5,2.27-17.55l-7.92-15.15c-4.29-8.21-6.46-16.87-7.83-26.55-2.72-19.32,5.23-36.74,19.85-49.27l10.63-9.12c22.43-19.24,46.28-8.47,65.42-1.73,9.43,3.33,19.24,6.5,27.76,11.65.66,1.33,1.97,4.44,3.21,4.39l5.51-.2,30.71,20.92c15.31-16.07,32.44-.9,32.43-1.13l-.11,5.39Z"/>
    <path class="st8" d="M591.92,295.27c29.09-48.12-22.96-115.37-59.61-150.16,7.56-5.36,11.54-13.56,6.59-20.63-7.49-10.7-29.78-27.6-40.12-34.81,1.37-1.56-.44-5.78.11-5.39,18.05,13.69,58.15,42.58,41.37,60.93,24.02,23.28,43.74,49.24,56.7,79.08l6.35,18.88c5.12,18.18,3.32,37.05-6.15,53.43l-5.24-1.33Z"/>
    <path class="st8" d="M282.27,338.18c-4.03.96-9.23,4.46-12.78,1.7-3.91-3.04-4.45-8.39-1.97-13.23-2.36-4.47-4.47-7.97-3.19-13.42,1.23-3.03,4.22-6.54,7.68-9.32-3.42-3.18-6.62-6.86-5.79-10.11,1.05-4.12,4.84-6.26,8.49-6.59,3.86-.34,8.17,1.88,7.93,7.06-.13,2.65-3.31,6.92-5.05,9.55,3.35,2.7,6.79,5.63,8,8.2,2.09,4.44.47,7.4-1.49,12.91,6.05-.41,11.27-2.38,13.97,2.35,2.38,4.17,1.98,9.63-1.65,12.65-3.97,3.3-9.08,1.86-14.14-1.76ZM274.14,292.33c-1.59.79-2.83,3.1-2.3,3.92s2.48,1.95,3.23,1.33,1.96-2.18,2.52-3.08c.51-.82-2.47-2.66-3.45-2.18ZM280.73,318.95c2.33-2.93-.49-6.54-2.62-7.67-2.55-1.36-6.23-1.04-7.54.88s-1.97,7.09-.02,8.54c2.16,1.6,8.52.33,10.18-1.75ZM273.48,328.29c-2.1.82-3.02,3.99-2.32,5.89.48,1.31,3.13,1.93,4.58,1.1,1.27-.73,2.58-3.18,2.46-4.69-.11-1.35-3.2-2.89-4.72-2.29ZM289.97,329.56c-2.2.45-4.43,3.22-3.47,4.39,1.12,1.36,3.6,2.63,5.09,2.78,1.38.14,3.03-2.55,2.97-4.05-.09-2.14-1.72-3.71-4.59-3.12Z"/>
    <path class="st8" d="M491.68,308.42c14,6.4,28.39,11.91,44.32,13.56,22.52,4.01,43.16-6.21,55.57-24.22,2.1-.06,3.88.4,4.89,2.23-13.37,19.84-35.7,30.88-59.39,27.54-19.31-1.54-36.46-8.67-53.17-17.16l7.78-1.96ZM570.71,317.63c.61.83,1.61,1.92,1.73,1.5l.53-1.76c.13-.42-1.15-.1-2.27.26Z"/>
    <path class="st8" d="M290.17,355.9l-1.21-4.75c7.14-2.83,16.72-3.24,24.93-4.22,3.5-8.48,17.81-11.84,16.1-19.19-.71-3.07-4.13-5.27-7.3-6.48l-8.74-3.32-1.77-1.44c2.07,0,2.5,0,1.44,0l.87.74,3.8-2.28c6.89.8,14.43,4.81,18.43,10.94-1.08,9.15-7.43,15.39-16.24,19.52,1.15,1.21,2.97,2.05,6.2,3.56-10.25,7.56-23.43,2.3-36.51,6.91Z"/>
    <path class="st8" d="M215.37,405c3.95,5.62,12.06,11.46,20.71,11.23l2.79,31.93c-3.41,6.69-6.48,14.17-1.39,21.79l3.44,4.13q1.14,1.01,1.97,3.83l-5.67-.41c-1.87-2.89-2.83-3.42-3.84-4.29l-1.5-3.09-.9-11.9.24-6.24c1.11-2.29,2.29-5.96,1.95-8.87l-2.56-21.99c-9.73-2.32-20.17-12.81-18.45-14.28l3.21-1.83Z"/>
    <path class="st8" d="M515.02,354.65c-7.37,1.27-14.99.63-22.09-.47l22.09.47Z"/>
    <path class="st8" d="M231.89,470.12c-2.84-5.84-3.63-11.99-.66-18.14l-.24,6.24.9,11.9Z"/>
    <path class="st6" d="M260.02,341c-1.59-2.02-2.62-4.93-2.52-7.65,1.48,1.92,2.48,5.3,2.52,7.65Z"/>
    <path class="st8" d="M489.78,307.28c-.21.32-2.46.89-2.54.23l-.24-1.88,2.78,1.65Z"/>
    <path class="st8" d="M288.1,360.18l-.55,1.79c-.13.42-1.39-.4-1.57-.54l.62-1.21c.23-.3,1.12-.09,1.5-.04Z"/>
    <path class="st8" d="M482.22,303.82c-.22,1.28-.6,2.75-.18,3.19l2.01,2.12c-4.09-.84-6.48.02-9.96,1.86l-10.9,5.75c.71-1.32.61-3.66-.34-5.02l4.44-6.51c2.57,6.9,8.24-4.9,11.8-4.44,1.08.14,3.31,1.96,3.12,3.05Z"/>
    <path class="st6" d="M466.63,507.05l-.2,4.21.68,2.31-6.22,52.53-12.36,120.37c-41.02,5.04-82.13,4.4-122.91-2.88.1-3.89-.26-7.67-1.93-10.69l-.79-30.02-9.19-135.87-.03-17.48c40.3,5.14,80.2,5.36,120.85,3.33,1.15,3.48,3.55,5.93,5.59,4.8-.43-2.09-1.46-5.95-.2-6.18,1.08-.19,3.73.05,5.55.3,2.56,8.38,4.91,16.77,12.05,22.6l-.39-9.34,9.5,2.02ZM350.88,515.74c.42,52.86.63,105.27,6.51,158.59,1.59-52.76-1.97-105.26-4.49-157.87-.18-3.72-.29-6.32-1.45-9.69l-.57,8.97ZM426.03,521.03c-1.61,51.87-4.83,103.6-1.89,156.44,4.39-52.06,4.43-103.85,4.02-155.91l-.58-8.84c-1.26,3.05-1.46,5.34-1.55,8.31ZM390.03,658.79c2.99-48.97,3.23-97.55-.58-145.75-3.51,49.44-2.11,97.1.58,145.75ZM391.08,661.04l-1.68-1.88-.42,9.85,1.85-.03.25-7.95Z"/>
    <path class="st0" d="M460.82,351.95c9.21,10.14,23.06,13.64,37.09,13.39l16.93,1.82-.81,5.42c5.11,1.34,9.12,4.05,10.8,8.51,8.62-1.48,15.2.87,19.82,7.84,3.62,5.45,4.18,13.49-.05,19.8l-11.03,16.46c-2.66-1.75-5.04-2.45-7.14-1.83-4.9,11.14-11.59,21.12-20.39,28.59,3.33,16.17.26,33.14-12.11,41.76-4.81-1.57-3.58,4.7-5.06,9.21-10.93-9.55-8.33-30.21-2.64-41.39l2.72-3.31c.42-.51-1.77-1.49-2.21-.98l-1.74,2.02c-3.97,4.61-7.15,10.42-7.87,16.56l-5.52,7.68c-3.73,6.37-10.32,11.58-16.54,7.41l-3.57,2.58c-2.22-10.92.21-20.48,4.27-30.34l4.26-10.36c-3.72,1.65-6.97,5.12-8.06,8.04l-1.65-.25-10.53,16.56-7.93-.6c-1.73-11.98,2.47-23.67,10.35-33.04l3.78-4.49c-3.27.77-5.75,2.05-7.25,3.84l-6.79,8.08-7.17-1.53c-1.55-5.74,4.49-8.67,5.82-12.46,4.51-12.8,10.89-17.25,24.13-22.44l15.53-1.47-2.61-3.39c-.43-.56,1.18-2.02,1.67-2.6,2.54-1.51,6.81-6.15,10.43-2.01,5.45-2.3,11.3-5.24,17.05-6.08,3.57-.52,6.13-.21,10.01-2.68l-11.83-1.38-4.71-.29c-1.05-.06-.39-3.05-.22-4.92-14.79.57-18.56-9.16-27.97-13.8l-6.99-10.63c7.19-3.95-.33-14.93-7.12-22.26l-1.06-1.86-.38-2.17c-.14-.52-1.99.76-1.7.91-.12-.07-.35,0-.55.03v1.21s-.05,1.92-.05,1.92c-.03,1.46-1.5,3.61-2.53,5.55-1.66,3.16,1.54,6.67,4.66,8.31l3.43,17.28c2.77,5.9.06,12.21-6.72,14.44.5,8.07-4.53,13.45-11.86,17-23.57,7.61-61.97,10.08-80.49-6.24-.25-4.83-1.36-7.68-4.44-11.16-.29-5.46,2.68-9.38,4.68-15.66l-8.44,7.55c-1.47-7.86-.28-13.75,1.71-20.79l-7.24.43.72-1.88,2.16-.22c.46-.06-1-1.59-.89-1.91l6.11-6.93c2.42.52,4.16-.19,4.11-2.27-.13-5.77-4.7-1.98-9.6-9.83-.93-1.48,1.18-4.98,3.51-6.43,20.56,10.47,43.1,13.49,66.19,7.44l-1.48,6.59c11.64-3.15,17.43-11.27,24.95-8.36l15.15-11.92c.99-.78,1.62-3.3,1.87-4.87,4.97,20.42,16.35,24.75,19.93,30.09.31.46-.75,1.39-1.3,1.29l-2.55-.46-4.21-.77c-.62-.11-.62,1.28-.87,2.64Z"/>
    <path class="st5" d="M571.91,280.5c-12.34,25.58-56.88,6.7-81.32-5.17l4.19-9.26c3.36-13.03,2.81-25.92-5.11-36.14,2.05-4.75-.54-9.77-.17-14.14,1.03-12.08-3.36-23.16-15.15-27.52-1.23-7.17-9.36-7.17-15.62-8.69l6.01-3.54c-6.17-6.22-13.62-6.71-22.02-6.78,4.57-17.25-3.99-33.71-19.57-39.69-16.08-6.16-32.88-.02-40.99,16.53-8.65-10.95-21.16-17.61-33.64-13.92-6.21-19.1-10.95-36.67,1.04-54.37,14.58,1.17,28.25,5.55,41.86,11.91,65.93,30.82,145.53,92.4,173.11,160.73,3.92,9.7,7.67,19.38,7.37,30.04Z"/>
    <path class="st5" d="M448.53,686.47l12.36-120.37,6.22-52.53c-3.19,54.01-7.86,108.23-7.65,162.77,7.83-55.42,7.64-109.87,9.72-165.66l-2.74.57.2-4.21c5.42,1.15,10.96-2.16,15.58-5.73,3.17,4.73,6.24,8.57,11.94,11.28l-.55-10.97c9.78-1.98,17.12-9.18,20.61-18.55,11.35-1.57,21.7-4.23,33.09-7.59l-21.24,189.07c-24.65,12.75-50.79,18.62-77.53,21.91ZM509.72,658.13c9.64-52.93,15.32-105.06,16.88-157.36-7.19,53.1-14.07,105.06-16.88,157.36ZM486.74,669.25c7.84-53.62,12.76-106.39,13.13-160.34l-10.68,108.02c-1.77,17.94-3.46,34.99-2.45,52.32Z"/>
    <path class="st0" d="M463.05,188.96c3.88,2.72,9.3,3.4,12.22,8.57.99,1.75-4.2,3.67-6.98,4.28,4.48,3.09,8.25,5.69,10.04,8.55,3.07,4.9,1.41,9.61-.12,14.02,6.54,10.06,8.79,22.68,4.69,21.38l-4.79-1.52c4.19,5.9,7.39,8.72,2.04,16.79,3.41,10.42,1.12,23.34-8.21,28.43l-2.05-4.05c-.26-.51-1.43.93-1.38,1.49l.16,2.18.23,2.44c-2.2,1.19-3.69,4.94-5.33,8.26l-1.42,2.88c-.33.67-1.58-.95-2.22-1.79l-2.86,2c-7.34,5.12-13.95,12.63-23.34,13.62l.46-2.43.86-1.63c.17-.33-.36-1.76-.67-1.58l-1.26.76c-.32.19-.58,1.71-.83,1.99-3.84,4.15-12.89,8.88-18.77,11.97-6.55,3.44-11.25,3.75-18.63,3.61-11.95-.23-24.57.65-34.49-6.16l-3.79-3.27c-1.11-.95-2.41.84-2.9,3.1-7.17-.89-11.74-7.04-17.66-10.8-7.03-4.47-12.15-9.1-16.65-15.86-.73-.62-1.94-1.11-2.03-.48l-.72,3.14-4.05-2.86-.21-3.32c.49-.41-.77-3.68-1.84-4.34-8.88-5.5-13.87-15.85-12.3-25.2l.49-2.95.13-1.21-2.06.08c-5.07-7.11-5.13-15.47-1.64-23.95-6.05-6.97-4.49-16.65,3.2-22.18l-3.97-6.05c2.55-4.58,6.51-8.65,10.39-11.24l-5.79-3.89c2.43-1.29,5.97-2.39,8.86-2.77,3.59-.47,7.21-.1,7.05-4.58,3.19-.08,5.36-.95,6.12-2.35l-5.38-.96c-.64-.11-.19-1.11.33-2.21,3.51-.89,7.78-1.28,11.42-.61,2.3,7.51,7.18,10.78,12.45,15.11,6.67,5.48,18.3,5.17,26.09,1.57l.93.21,10.36-2.8c1.5-2.71,3.22-5.38,5.94-7.88,11.85,13.38,33.89,17.67,45.81,6.03,10.23-9.98,10.55-19.66,22.4-14.99l-5.86,5.06c7.33.39,12.49.94,19.9,3.67l-8.24,4.12,5.86.63ZM352.78,217.39l-.95-1.66-10.9,1.95-1.96.35-.91.22-6.57,2.98-18.66,2.56-.76.46c-3.07-1.86-3.2-5.7-1.88-9.53-.09-.99-3.47-2.12-4.57-1.7-3.3,1.25-6.62,10.65-1.6,15.61,2.66,2.63,7.56,3.48,12.55,2.33,1.11,34.74,25.05,75.55,62.12,78.33,17.06,1.28,30.86-.89,44.62-11.42,9.97-7.63,18.18-18.34,24.23-30.69s6.52-35.51,8.52-37.41c4.94-4.69,12.22-.45,14.88-10.36,1.08-4.03,1.53-7.38-2.17-10.27-1.31-1.02-3.8-2.26-5.01-1.8-3.57,1.35.22,8.87-.82,9.07l-4.97.96-3.78,1.6c-1.04.44-3.19-.9-4.58-1.78-6.28.55-12.39-.21-18.69-2.37-5.33,2.18-10.92,2.7-16.6,1.89-9.34-10.56-17.75,4.85-24.45-1.53l-16.71,6.52c-2.84-3.44-4.54-4.76-8.25-5.33-3.31-.51-4.43,1.62-8.25,5.62-1.32-2.73-.56-.78-1.18-4.02-.77-.78-1.81-.95-2.7-.57ZM453.4,284.04c4.48-1.57,6.78-4.4,6.52-7.53-.3-3.59.69-7.24-4.03-8.86l-2.5,16.38Z"/>
    <path class="st5" d="M313.68,489.52l.03,17.48c-.38-.07-1.69.04-1.63.64l.37,3.47c.56,54.58,2.87,108.66,11.24,161.78,1.67,3.02,2.03,6.8,1.93,10.69-16.26-2.9-31.26-6.63-46.04-13.41l-.31-13.35c.26.14,1.91.2,1.78-.36l-.58-2.42c-3.97-47.34-10.78-94.1-18.5-140.05l-2.58-34.58c18.11,5.11,35.72,7.73,54.3,10.1ZM295.68,627.43l-14.1-132.75c.99,57.2,6.92,114.12,15.84,170.58,1.09-12.96-.89-24.36-1.74-37.83Z"/>
    <path class="st0" d="M211.36,314.68c4.5,2.2,8.71,5.84,11.38,10.37l2.9,4.93c.08-2.09-.05-4.34-.54-5.97-1.58-5.24-4.18-8.54-9.3-12.67l5.2-1.94c3.44-1.28,6.3-5.2,8.99-8.31,2.22-.18,7.28-.05,9.26-.92,3.59-1.59,1.51-11.24,9.29-15.64l.43,3.55-.21,2.05c-3.33.81-1,4.87-1.28,7.22-1.82,15.61-21.62,31.01-13.07,30.08l5.35-.59c1.61,16.11,4.86,30.31,21.69,30.69,1.51,2.1,3.65,3.51,5.85,3.27l13.08,4.55c-1.1.38-2.14.77-1.78,1.43l1.83,3.34-.32.96c-.85-.29-2.75,1.75-2.81,2.81-.05.88.27,2.37.56,3.39l-.73,1.21h4.33c-.5,0,6.95-11.44,20.64-12.91,5.68-.61,8.18-3.04,12.93-5.55s12.47-1.1,18.36-7.24c-4.11,8-5.37,14.97-2.99,23.66-7.21,4.73-15.62,6.82-18.72,15.16-16.55,13.39-60.3,14.1-58.21-7.22,2.82-4.04,6.98-7.62,9.63-11.01.23-.06,1.02-.01,1.17,0l4.32-2.19c-1.59-.63-2.68-1.34-3.18-1.22l-2.37.99h-1.07s-3.9.17-3.9.17c-1.41.06-3.93,1-5.27,1.79-9.88,2.41-20.53,8.76-23.52,18.81-15.95-2.17-14.94-21.19-26.94-35.85,1.42-2.6,2.66-7.09,2.18-10.04-5.76-5.94-13.05-6.94-20.4-7.53-19.43-4.47-35.21-13.76-43.76-31.49l-2.36-2.34c-.63-.63-2.8.32-4.2.8-4.85-7.3-4.6-16.52-1.24-24.65l5.07-12.28,12.34-8.17,9.89,5.56c3.27,20.52-7.68,23.02-14.05,35.02,5.31-.15,10.66,1.84,14.14-2.82,7.41,13.62-1.66,22.93,8.67,16.63l5.19-3.16c1.14-.69,3.42,2.46,4.72,3.47l32.85-.19Z"/>
    <path class="st6" d="M444.32,712.21l-4.36,32.47c-34.52,3.77-70.05,3.84-104.68-2.09l-4.86-33.75c37.99,5.59,75.69,6.7,113.9,3.37Z"/>
    <path class="st6" d="M405.36,439.05l11-.12,6.63-.04c-5.47,8.33-7.74,19.14-2.23,28.97,3.32-4.38,2.79-9.59,8.61-10.58l-2.88,13.06c-39.33,1.31-76.67-.4-114.87-5.59l-1.35-30.91c31.75,4.57,63.08,5.56,95.08,5.21Z"/>
    <path class="st4" d="M446.11,343.73l3.44,6.76-5.52-.25,10.4,11.62c-.92,1.56-2.95,3.57-2.56,4.62.33.88,1.42,2.63,2.12,3.63l13.52,19.37c-.68-5.42-2.85-9.7-5.41-13.6,9.41,4.64,13.18,14.37,27.97,13.8-.17,1.87-.83,4.86.22,4.92l4.71.29.03,1.1-2.01.05-3.28.85c-1.06.14-4.07-.02-3.74-1.07l1.74-5.7c-9.09,5.21-17.01,10.41-25.25,17.17-4.23,3.47-11.64,3.59-17.41,5.61-2.82.25-5.98,1.65-7.3,4.93-41.32,3.96-83.72,2.63-126.09-2.15,1.42-9.99,6.42-15.55,13.12-22.53l-7.04-.87c6.45-4.75,13.44-8.46,19.09-13.14l1.98-16.92-2.41.66c-.54.15-1.05-2.03-.59-2.34l1.2-.79,7.24-.43c-1.99,7.04-3.18,12.93-1.71,20.79l8.44-7.55c-1.99,6.28-4.97,10.2-4.68,15.66,3.08,3.48,4.19,6.33,4.44,11.16,18.52,16.33,56.92,13.85,80.49,6.24,7.33-3.55,12.36-8.93,11.86-17,6.78-2.24,9.49-8.55,6.72-14.44l-3.43-17.28c-3.12-1.64-6.32-5.15-4.66-8.31,1.02-1.94,2.5-4.09,2.53-5.55l1.86.69Z"/>
    <path class="st6" d="M519.94,142.13c-5.27,6.54-10.99,11.49-18.28,14.24-37.97-34.97-108.77-85.04-161.71-84.71,22.79-4.45,45.52,5.35,68.57,13.67-6.18-5.08-13.22-7.76-19.9-10.71l17.51-9.25c15.86,7.04,31.76,13.99,46.96,23.6,24.44,15.45,46.57,33.57,66.86,53.15ZM411.99,86.48l-1.47-1.37c-.4-.38-2.99.04-2.55.38.87.67,1.33,1.1,1.85,1.23l1.62.42.54-.66ZM412.52,86.98l-.52.52,1.49.5.49-.5-1.47-.53ZM414.23,88.72l.56-.48-.56.48Z"/>
    <path class="st5" d="M593.76,268.63c-3.92,6.51-8.35,12.61-14.91,16.16-1.42-48.91-42.13-96.14-77.19-128.42,7.28-2.76,13.01-7.7,18.28-14.24,22.28,21.51,43.46,44.55,58.52,72.38,9.23,17.05,16.81,35.38,15.3,54.13ZM574.66,242.13c-11.24-27.78-28.82-55.05-52.81-73.3,20,24.74,39.51,46.5,51.43,74.3l1.38-1ZM574.7,242.9l-.85.65,1.53,4.46.88-.61-1.55-4.5ZM576.49,249.69l.04-1.49-.04,1.49Z"/>
    <path class="st5" d="M439.96,744.68l4.36-32.47c27.11-2.36,52.7-6.71,77.91-18.66l-2.93,24.77c-18.9,16.91-54.32,23.63-79.34,26.36Z"/>
    <path class="st7" d="M389.92,182.15l-.06-2.55c-.07-.57-1.66-.64-2.41-.59-6.04-9.39-6.7-21.28-1.63-31.46,4.51-9.06,13.95-15.57,25.22-15.73,13.55-.2,24.54,9.73,27.5,21.47,3.45,13.7-2.6,26.77-13.74,33.32-11.4,6.7-26.04,4.84-34.87-4.45ZM398,154.61c-7,2.72-8.27,10.25-5.91,15.93,2.59,6.25,8.84,8.45,14.93,5.91s8.64-9.35,6.36-15.46c-2.14-5.71-8.8-8.93-15.37-6.38Z"/>
    <path class="st7" d="M381.71,173.81c-4.84,15.82-22.49,22.96-37.41,16.8-9.95-4.11-15.84-13.71-16.78-23.84s3.37-20.89,12.69-26.6c14.06-8.61,32.14-2.9,40.58,11.09-2.07,7.42-2.23,14.29.93,22.56ZM360.02,161.67c-6.57,2.66-8.36,10.32-6.01,15.84,2.48,5.84,9.32,8.6,14.83,6.58,6.5-2.39,8.35-9.47,6.69-15.28-1.81-6.3-8.6-9.93-15.5-7.14Z"/>
    <path class="st4" d="M449.82,319.15c-.25,1.57-.88,4.09-1.87,4.87l-15.15,11.92c-7.52-2.91-13.31,5.21-24.95,8.36l1.48-6.59c-23.08,6.05-45.63,3.03-66.19-7.44-2.32,1.45-4.44,4.95-3.51,6.43,4.9,7.84,9.48,4.05,9.6,9.83.05,2.09-1.69,2.8-4.11,2.27l2.01-4.95c-23.12,13.98-12.01,31.14-12.63,31.9-.82,1.01-2.93,3-3.98,3.66l-14.16,8.85c-3.05,3.4-3.83,6.44-2.41,10.31-2.84,5.06-4.9,10.22-6.55,15.66l-14.3-1.22c-12.54-6.26-26.13-5.2-45.21-13.02-4.58-1.88-9.67-8.4-6.93-12.87l3.34-6.14c5.17-3.26,13.75-6.41,18.78-7.6-2.65,3.38-6.81,6.96-9.63,11.01-2.1,21.32,41.66,20.61,58.21,7.22,3.1-8.33,11.51-10.42,18.72-15.16-2.39-8.69-1.12-15.66,2.99-23.66-5.89,6.14-13.5,4.67-18.36,7.24s-7.25,4.94-12.93,5.55c-13.69,1.47-21.13,12.91-20.64,12.91h-4.33s9.05-9.3,9.05-9.3c5.35-5.99,14.16-6.2,22.39-7.7l-5.58-3.8c14.85-.16,27.78-2.76,35.76-13.97l.84-2.69c.13-.42,0-.66-.38-.56l-2.28.62c-.48.13-1.56-.2-1.74-.67l-.24-1.39c2.38-2.91,4.08-7.66,5.75-11.88,9.19,3.87,19.06,9.05,28.16,3.85,14.84,5.28,30.51,6.24,45.86-1.33,3.74,3.56,9,3.88,13.66,1.3l21.44-11.83ZM340.06,338.5c0-.31-.25-.56-.56-.56s-.56.25-.56.56.25.56.56.56.56-.25.56-.56Z"/>
    <path class="st6" d="M446.96,691.17l-2.53,16.74c-38.75,3.33-77.21,2.33-115.18-3.65l-1.78-15.77c39.81,6.5,79.54,7.32,119.49,2.67Z"/>
    <path class="st5" d="M310.29,433.84l1.35,30.91c-19.34-2.63-37.58-6.86-56.09-12.44l-2.24-31.4c18.54,6.61,37.31,10.1,56.97,12.93Z"/>
    <path class="st6" d="M311.36,484.56l1.33-15.01c38.02,4.84,75.82,6.69,114.16,5.18l3.65,13.66c-40.64,2.18-79.73,1.29-119.13-3.84Z"/>
    <path class="st5" d="M330.42,708.84l4.86,33.75c-18.44-3.16-35.61-9.38-51.82-18.02l.11-27.08c15.22,5.71,30.59,8.96,46.84,11.35Z"/>
    <path class="st4" d="M211.36,314.68l-32.85.19c-1.3-1.01-3.58-4.16-4.72-3.47l-5.19,3.16c-10.34,6.3-1.26-3.01-8.67-16.63-3.49,4.66-8.84,2.67-14.14,2.82,6.37-11.99,17.31-14.5,14.05-35.02l-9.89-5.56-12.34,8.17-5.07,12.28c-3.35,8.13-3.61,17.35,1.24,24.65,1.41-.48,3.57-1.43,4.2-.8l2.36,2.34c8.55,17.73,24.34,27.02,43.76,31.49,7.35.6,14.64,1.6,20.4,7.53.47,2.95-.77,7.44-2.18,10.04,12.01,14.66,11,33.67,26.94,35.85-1.69,5.68.71,11.67,3.02,17.74-11.36-4.13-21.51-14.56-20.91-26l.52-6.48-6.98,2.24c-.73-6.61-2.94-13.52-7.08-18.75l-2.42,2.43c-.21.21-.81-.86-.98-1.22l-7.21-14.99c5.39.36,9.59,2.18,13.76,1.23-5.16-5.88-12.1-5.36-18.06-6.36.16-1.08.13-2.58-.49-2.54l-3.91.23-19.81-3.72c-11.7-4.85-17.64-15.51-20.84-29.05l-2.48,5.92c-8.88-9.85-8.73-24.48-4.01-37,4.1-10.6,14.12-17.75,24.5-16.68,2.16,5.85,8.38,2.44,13.49,3.42-13.95,8.46,3.17,22.9-19.49,35.91,5.02,1.27,8.47-1.83,11.98-4.5,3.84,6.72,3.05,13.18,2.02,20.73l10.87-6.76c5.11,5.63,11.05,4.57,17.48,3.5,8.84,3.31,13.11.73,19.13,3.68Z"/>
    <path class="st6" d="M259.38,479.42l2.58,34.58c4.46,47.78,9.95,95.45,17.31,142.83l.31,13.35-8.2-3.76-21-189.53,9,2.54Z"/>
    <path class="st4" d="M525.29,373.6l.63,3.17.83,2.7c12.2-2.46,21.7,3.83,27.55,13.21,10.83,22.54-8.79,35.74-9.69,32.41l-1.83-6.8c-3.65,9.51-4.59,18.46-15.01,22.16l1.1-14.91c-3.44,3.03-3.8,7.27-4.27,11.96l-1.37,13.53-6.47-2.08c-.41,1.59-1.02,4.59-.91,6.05l.15,1.97.62,1.24.24,2.58.09,1.38.1,11.48c0,.52-1.12,2.42-1.47,2.12l-2.41-2.02c-2.13,9.84-9.54,19.77-18.9,23.47-.82-.27-1.62-3.57-.33-3.55,12.37-8.62,15.44-25.59,12.11-41.76,8.79-7.47,15.49-17.46,20.39-28.59,2.1-.62,4.48.08,7.14,1.83l11.03-16.46c4.23-6.31,3.66-14.35.05-19.8-4.63-6.97-11.2-9.32-19.82-7.84-1.68-4.46-5.68-7.17-10.8-8.51l.81-5.42-16.93-1.82c-14.03.24-27.89-3.25-37.09-13.39,21.67,15.61,43.58,8.73,64.73,15.94-4.15,1.37-6.28,2.01-8.82,3.39l8.56,2.32ZM531.5,426l-.5.5.5.5.5-.5-.5-.5Z"/>
    <path class="st5" d="M444.44,707.92l2.53-16.74c27.88-3.25,54.39-9.33,79.64-21.89,3.44,4.51,3.21,8.94,1.12,13.7-1.19,2.72-4.77,5.38-8.76,7.15-23.66,10.53-48.46,15.54-74.53,17.78Z"/>
    <path class="st6" d="M415.98,434.66l-10.98.25c-32.55.75-65.15-1.31-97.26-6.4l.29-8.51c40.11,5.48,80.73,4.87,122.46,3.71l-4.42,10.43-10.08.51Z"/>
    <path class="st5" d="M572.96,288.8c.97,15.63-11.47,26.97-27.16,26.43-22.75-.78-43.95-8.96-64.1-20.13l5.19-10.74c25.65,13.84,68.44,31.53,86.08,4.44Z"/>
    <path class="st6" d="M434.89,749.69l4.11.37-.47,9.04c-34.75,3.26-69.48,2.77-103.81-3.42l1.72-8.49c32.66,5.55,65.46,5.06,98.46,2.5Z"/>
    <path class="st5" d="M339.18,134.9l-9.75,7.88c-10-18.39-19.35-45.84-6.15-58.8,4.28-4.2,11.41-6.5,17.26-5.63-12.18,17.02-9.88,38.04-1.36,56.54Z"/>
    <path class="st5" d="M312.69,469.56l-1.33,15.01c-18.56-2.42-35.96-5.34-53.92-10.48l.1-16.32c18.02,6.17,36.11,9.37,55.15,11.8Z"/>
    <path class="st5" d="M438.53,759.1l.47-9.04-4.11-.37c29.77-2.31,65.46-9.02,89.12-28.29.18,25.44-62.11,35.5-85.48,37.7Z"/>
    <path class="st5" d="M327.48,688.5l1.78,15.77c-16.41-2.58-32.91-6.54-48.71-12.62l1.07-15.86c14.84,6.25,29.73,10.08,45.86,12.71Z"/>
    <path class="st4" d="M483.33,202.63l.64,1.52.2.69-3.31,1.81c-.54.3,1.6,1.51,1.93,1.5,2.31,6.67,7.16,13.59,2.51,20.8,5.58,8.5,9.25,18.13,7.34,29.2-1.62-2.55-3.71-5.08-5.47-5.07l1.98,11.54-3.07.26c-.57-1.73-2-3.51-4.36-3.99,4.53,10.21,2.83,19.05-1.6,28.07l-2.9,1.57c-.49.3-.91,1.74.6,1.9l-1.8,2.73-4.29-.32c-.2-1.92-1.47-5.53-3.04-5.76l-.16-2.18c-.04-.57,1.13-2,1.38-1.49l2.05,4.05c9.32-5.09,11.62-18.01,8.21-28.43,5.34-8.07,2.15-10.89-2.04-16.79l4.79,1.52c4.09,1.3,1.84-11.32-4.69-21.38,1.52-4.41,3.19-9.12.12-14.02-1.79-2.86-5.56-5.46-10.04-8.55,2.79-.6,7.97-2.53,6.98-4.28-2.92-5.17-8.34-5.85-12.22-8.57,8.29,1.02,17.03,5.93,20.28,13.67Z"/>
    <path class="st5" d="M293.1,413.02c-13.88-1.19-53.4-8.71-55.72-21.31-2.21,7.08,3.36,11.94,9.63,14.44,19.61,7.83,40.33,11.03,61,13.85l-.29,8.51c-19.51-3.09-38.79-7.23-57.7-14.57-6.27-2.44-12.93-7.28-15.29-13.47-3.16-8.26,2.96-15.33,9.57-19.49l-3.34,6.14c-2.74,4.47,2.35,11,6.93,12.87,19.08,7.82,32.66,6.76,45.21,13.02Z"/>
    <path class="st5" d="M552.3,468.52l-32.84,9.65,2.01-15.51c11.95-2.43,23.09-7.38,34.97-12.29,3.34,6.13.4,12.99-4.13,18.15Z"/>
    <path class="st6" d="M571.91,280.5c-.33,11.78-12.22,18.51-24.2,18.58-20.74.11-40.46-8.41-59.18-17.64.01-2.1,1.25-4.43,2.06-6.1,24.44,11.86,68.98,30.74,81.32,5.17Z"/>
    <path class="st6" d="M534.29,136.59c-.76-1.36-4.14-3.05-5.58-2.63-1.25.36-2.84,1.9-4.53,2.58l5.29-6.41c-13.48-14.65-28.65-25.62-44.43-36.39-2.27-2-6.45,3.16-10.09-.81,2.14-2.16,6.85-6.7,10.89-4.84,19.38,8.93,35.94,22.23,49.89,38.07.97,1.11,2.09,4.83,1.53,6.12s-1.88,2.89-2.97,4.29Z"/>
    <path class="st5" d="M406.12,65.38l-17.51,9.25c-9.86-4.36-20.4-6.75-31.19-8.65,3.51-4.2,9.81-8.56,14.81-12.06,11.58,3.08,23.07,6.65,33.89,11.45Z"/>
    <path class="st4" d="M296.82,259.03l-2.21,4-3.33,6.02-2.2.02-.11-2.01.32-1.31c-.46-2.01-2.05-4.35-3.92-6.25-.22-7.63,3.22-15.02,6.04-22.01l-3.59.07c-2.26.04-3.31-12.58,4.53-23.96l-8.77,5.84c1.98-10.76,7.95-19.16,16.59-24.19l-4.19-.67c-.5-.08.69-1.6,1.14-1.83l1.9-1.01,5.79,3.89c-3.88,2.59-7.84,6.66-10.39,11.24l3.97,6.05c-7.69,5.53-9.25,15.21-3.2,22.18-3.5,8.48-3.43,16.84,1.64,23.95Z"/>
    <path class="st5" d="M336.44,747.19l-1.72,8.49c-18.29-3.3-35.56-8.1-51.17-17.4l.79-8.19c15.85,9.4,33.69,13.97,52.09,17.1Z"/>
    <path class="st5" d="M525.02,457.28l2.83-11.57c6.74-3,12.57-8.54,15.6-15.1l10.86-4.84-2.25,21.42c-8.53,4.15-17.71,7.42-27.04,10.1Z"/>
    <path class="st6" d="M349.56,77.81c-11.99,17.71-7.25,35.28-1.04,54.37l-6.19,1.83c-5.15-13.85-8.65-28.99-5.12-43.83,1.38-5.81,5.96-12.89,12.35-12.37Z"/>
    <path class="st8" d="M519.14,134.4c-12.26-10.63-23.46-19.89-36.36-29.72.49-1.53,2.28-3.28,4.39-4.43,13.04,9.46,24.64,18.52,36.44,29.59-1.32,1.73-2.51,2.93-4.47,4.56Z"/>
    <path class="st4" d="M477.15,475.8c-.82,6.96.68,13.95,2.08,21.65-4.39,5.57-17.74,9.44-22.5-.3.85-.86,1.05-2.11.47-3.16-1.42-2.22-.9-1.22-2.14-.85l.03-2.25c6.23,4.17,12.82-1.04,16.54-7.41l5.52-7.68Z"/>
    <path class="st0" d="M152.05,253.74c-5.53,2.03-10.93,4.32-16.19,7.17.47-8.09,3.23-18.93,9.99-24.04,2.8-.58,6.7-1.67,10.83-4.39-2.46,6.35-3.83,13.31-4.62,21.26Z"/>
    <polygon class="st6" points="253.31 420.9 255.55 452.3 247.22 449.06 243.68 416.69 253.31 420.9"/>
    <path class="st4" d="M360.39,323l-4.96-.8,4.74,6.98c-16.24-1.92-29.19-11.5-38.29-23.73l-2.5-9.28c4.5,6.76,9.62,11.39,16.65,15.86,5.91,3.76,10.49,9.91,17.66,10.8.49-2.27,1.8-4.06,2.9-3.1l3.79,3.27Z"/>
    <path class="st6" d="M372.23,53.92c-4.99,3.49-11.3,8.17-14.81,12.37l-1.12-.05-1.43.05-4.72-.05-1.35.05-12.11,1.69c12.23-10.54,20.35-18.1,35.54-14.06Z"/>
    <path class="st6" d="M257.54,457.76l-.1,16.32c-4.73-1.35-10.39-3.09-12.63-6.45-3.07-4.59-3.81-9.58-.99-14.57l13.72,4.7Z"/>
    <path class="st6" d="M533.52,374.92c13.64-2.82,36.34,8.22,34.75,20.46-.41,3.17-3.12,6.55-6.29,8.97-1.11-16.82-12.6-28.21-28.46-29.43Z"/>
    <path class="st6" d="M281.61,675.79l-1.07,15.86c-4.42-1.7-9.82-4.11-11.6-7.14-2.58-4.42-1.98-9.49-.18-14.13l12.85,5.41Z"/>
    <path class="st4" d="M312.39,292.65l-2.22-2.64c-.33-.53-1.94-1.07-2.1-.46l-.96,3.57c-.27.98-1.38,4.26-2.28,3.79l-3.94-1.84.23-.95-.25-2.49c-.06-.58-1.49-.69-1.98-.56-4.67-7.63-5.02-17.29-3.08-25.95l2.44-2c-1.57,9.35,3.42,19.7,12.3,25.2,1.07.66,2.33,3.93,1.84,4.34Z"/>
    <polygon class="st6" points="283.58 697.49 283.46 724.57 277.22 721.24 273.57 693.74 283.58 697.49"/>
    <path class="st4" d="M428.99,190.48c-11.92,11.63-33.96,7.34-45.81-6.03-2.72,2.5-4.44,5.18-5.94,7.88l-10.36,2.8c6.74-3.09,10.88-9.11,16.68-15.67,9.28,15.82,29.63,18.57,45.42,11.03Z"/>
    <path class="st6" d="M593.76,268.63c-1.06,13.2-7.38,25.31-17.87,33.79,1.29-6.28,3.13-12.01,2.96-17.63,6.56-3.55,10.99-9.65,14.91-16.16Z"/>
    <path class="st4" d="M456.94,306.25c-8.76,9.3-19.28,18.65-33.4,21.15l10.2-10.91c9.39-.99,16-8.5,23.34-13.62l-.13,3.38Z"/>
    <path class="st4" d="M267.29,360.81c-2.19.24-4.33-1.17-5.85-3.27-16.83-.38-20.08-14.58-21.69-30.69l-5.35.59c-8.55.94,11.26-14.47,13.07-30.08.27-2.35-2.05-6.41,1.28-7.22-1.05,1.82.2,4.89,1.5,7-2.36,10.28-9.67,18.86-14.34,27.58l4.65-1.51c2-.65-.59,18.12,9.19,26.68l2.1-5.47c.46,4.14,1.22,13.28,5.48,8.37l9.95,8.03Z"/>
    <path class="st4" d="M450.34,460.57c-3.42,8.33-5.23,16.61-5.61,25.79-1.22.49-5.24,1.28-5.58.08l-1.57-5.59-3.13,5.24-2.58-9.55,7.93.6,10.53-16.56Z"/>
    <path class="st5" d="M455.09,490.89l-.03,2.25-2.38,8.01c-5.31-11.26-4.85-23.53.29-35.3.85-1.94.44-4.3-.97-5.03,1.09-2.92,4.34-6.39,8.06-8.04l-4.26,10.36c-4.06,9.86-6.49,19.42-4.27,30.34l3.57-2.58Z"/>
    <path class="st4" d="M251.24,277.99l.73,4.08-3,6.02-.43-3.55c-7.78,4.39-5.7,14.05-9.29,15.64-1.97.87-7.04.74-9.26.92-2.69,3.11-5.55,7.03-8.99,8.31l7.36-9.97c4.37.45,6.82-.04,9.57-2.06,1.98-1.46,2.76-5.28,3.52-7.96l9.78-11.43Z"/>
    <path class="st5" d="M315.99,178.85c-.52,1.1-.97,2.09-.33,2.21l5.38.96c-.76,1.4-2.93,2.27-6.12,2.35.16,4.49-3.46,4.11-7.05,4.58l3.08-1.63c.77-.34.76-2.45.01-2.84l-3.78-1.96c2.89-1.42,5.96-2.94,8.81-3.67Z"/>
    <path class="st6" d="M284.35,730.09l-.79,8.19c-4.39-2.61-7.11-7.13-8.95-11.41l2.56-1.05,7.18,4.26Z"/>
    <path class="st4" d="M468.9,291.52c-.55,6.49-4.16,14.64-11.1,18.98l.26-3.2,1.86-6.43c.64.84,1.89,2.46,2.22,1.79l1.42-2.88c1.64-3.32,3.13-7.07,5.33-8.26Z"/>
    <path class="st5" d="M312.39,292.65l.21,3.32.4,6.3-4.52-10.76-.9,12.15-6.69-8.59,3.94,1.84c.9.47,2.01-2.81,2.28-3.79l.96-3.57c.16-.6,1.77-.07,2.1.46l2.22,2.64Z"/>
    <path class="st5" d="M534.29,136.59c-1.23,1.58-3.42,4.67-5.2,5.21-2.02.62-4.32-2.94-4.9-5.26,1.69-.69,3.28-2.22,4.53-2.58,1.43-.42,4.81,1.27,5.58,2.63Z"/>
    <path class="st5" d="M485.04,93.75l-5.95,7.41-7-5.34,2.86-2.88c3.65,3.97,7.83-1.19,10.09.81Z"/>
    <polygon class="st3" points="415.98 434.66 416.37 438.92 405.36 439.05 404.99 434.92 415.98 434.66"/>
    <polygon class="st4" points="316.64 298.83 318.84 305.85 320.1 310.56 314.02 305.26 312.91 302.94 312.99 302.27 312.6 295.97 316.64 298.83"/>
    <path class="st5" d="M211.36,383.46c.05-.68-1.14-3.06-1.65-2.49-.38.43-1.28,1.64-1.51,2.19l-2.26,5.58-1.05-9.52,6.98-2.24-.52,6.48Z"/>
    <path class="st5" d="M469.33,407.04c-.49.57-2.1,2.04-1.67,2.6l2.61,3.39-15.53,1.47c3.34-1.31,7.75-1.72,12.16-1.76l-.68-3.79c-.15-.86,2.29-1.41,3.11-1.89Z"/>
    <path class="st5" d="M319.39,296.17l2.5,9.28-3.05.4-2.2-7.02.72-3.14c.08-.62,1.3-.14,2.03.48Z"/>
    <polygon class="st5" points="286.17 369.19 277.12 378.5 277.85 377.28 280.1 371.09 280.42 370.13 282.98 368.03 286.17 369.19"/>
    <path class="st5" d="M496.81,398.94l2.61-1.81c.49-.33-.52-1-1.12-1.02l-3.28-.13-.03-1.1,11.83,1.38c-3.88,2.47-6.45,2.16-10.01,2.68Z"/>
    <path class="st5" d="M523.24,451.05c-.1.95-.92,2.7-1.34,3.53-.34.66-2.62.57-2.85-.12l-1.37-3.97-1.81,4.54c-.11-1.46.5-4.46.91-6.05l6.47,2.08Z"/>
    <path class="st5" d="M167.48,308.04l.13-6.33,3.24,2.99c.75.69-1.86,2.77-3.37,3.34Z"/>
    <path class="st5" d="M182.9,341.55c-8.24-1.39-16.63-2.89-24.2-6.03l19.81,3.72,3.91-.23c.62-.04.64,1.46.49,2.54Z"/>
    <path class="st4" d="M365.95,194.92c-7.79,3.6-19.42,3.92-26.09-1.57,8.26,3.33,17.54,4.12,26.09,1.57Z"/>
    <path class="st4" d="M442.23,443.49c-.73-1.1-.88-1.54-1.26-1.31l-2.2.66c1.5-1.79,3.98-3.07,7.25-3.84l-3.78,4.49Z"/>
    <path class="st5" d="M165.07,223.02c-.35,1.88-1.4,4.18-3.05,5.92-1.67-3.6.97-5.64,2.97-7.02l.08,1.1Z"/>
    <path class="st5" d="M489.14,264.62c.36,2.08-.12,5.43-.58,7.81l-2.49-7.55,3.07-.26Z"/>
    <path class="st4" d="M282.98,368.03l-2.55,2.1-1.83-3.34c-.36-.66.68-1.05,1.78-1.43l3.25.32c.56.06-.16,2.36-.65,2.36Z"/>
    <path class="st5" d="M336.92,341.1c-1.64,1.42-4.12,2.44-6.1,2.97l4.12-5.03.24,1.39c.19.47,1.26.8,1.74.67Z"/>
    <polygon class="st5" points="476.01 295.16 472.31 300.58 471.72 294.84 476.01 295.16"/>
    <polygon class="st5" points="298.88 258.95 298.75 260.17 298.25 263.11 295.81 265.11 294.61 263.03 296.82 259.03 298.88 258.95"/>
    <polygon class="st5" points="459.93 300.87 458.07 307.3 456.94 306.25 457.07 302.87 459.93 300.87"/>
    <path class="st5" d="M222.74,325.05l2.36-1.04c.49,1.62.62,3.88.54,5.97l-2.9-4.93Z"/>
    <path class="st5" d="M482.78,208.14c-.33,0-2.46-1.2-1.93-1.5l3.31-1.81,1.37,1.06c.39.3.29,2.03-.18,2.05l-2.58.21Z"/>
    <path class="st5" d="M277.16,725.83l-2.56,1.05-1.51-3.5c-.25-.58,2.26-.25,2.61.27l1.46,2.18Z"/>
    <polygon class="st5" points="268.58 371.19 264.26 373.38 261.95 370.96 263.03 370.96 268.58 371.19"/>
    <path class="st5" d="M525.92,376.77l-.63-3.17,3.92.95c.6.15.23,1.6-.37,1.71l-2.92.51Z"/>
    <path class="st5" d="M486.24,461.52c.47-.84.56-1.92.11-2.02l-1.34-.26,1.74-2.02c.44-.51,2.63.47,2.21.98l-2.72,3.31Z"/>
    <path class="st5" d="M445.07,412.89l-7.3,4.93c1.31-3.28,4.48-4.69,7.3-4.93Z"/>
    <path class="st5" d="M480.1,288.96c-.52,1.06-1.57,2.61-2.3,3.47-1.51-.15-1.09-1.6-.6-1.9l2.9-1.57Z"/>
    <path class="st7" d="M259.5,275.21l-.54-.06c-.07-.36-.03-2.3.55-2.19l2.52.5c.58.12.93,1.53.37,1.57l-2.9.18Z"/>
    <path class="st4" d="M434.19,314.05l-1.9-.47c.25-.27.52-1.79.83-1.99l1.26-.76c.31-.18.84,1.25.67,1.58l-.86,1.63Z"/>
    <path class="st5" d="M291.29,269.05c-.29.52-.46,2.68-.53,3.53-.09,1.19-1.57-1.44-1.68-3.51l2.2-.02Z"/>
    <path class="st5" d="M251.97,282.07l-.73-4.08c1.84.3,3.19.77,2.8,1.3l-2.07,2.79Z"/>
    <path class="st8" d="M389.92,182.15l-2.47-3.15c.75-.05,2.34.03,2.41.59l.06,2.55Z"/>
    <path class="st5" d="M301.12,294.12l-2.23-3.05c.49-.13,1.92-.02,1.98.56l.25,2.49Z"/>
    <path class="st5" d="M493.01,396.03l-3.28.85,3.28-.85Z"/>
    <path class="st4" d="M337.74,357.87c.21-.54.86-1.66,1.27-2.13-.11.31,1.34,1.85.89,1.91l-2.16.22Z"/>
    <path class="st5" d="M258.05,371.13l-5.27,1.79c1.35-.79,3.86-1.73,5.27-1.79Z"/>
    <path class="st5" d="M314.02,305.26c-.46-.4-1.18-1.75-1.11-2.32l1.11,2.32Z"/>
    <path class="st5" d="M516.97,462.2l-.09-1.38.09,1.38Z"/>
    <path class="st5" d="M288.98,267.06l.32-1.31-.32,1.31Z"/>
    <path class="st5" d="M356.58,66.99l-1.71-.7,1.71.7Z"/>
    <path class="st5" d="M348.8,66.29l1.35-.05-1.35.05Z"/>
    <path class="st5" d="M483.96,204.15l-.64-1.52.64,1.52Z"/>
    <rect class="st0" x="471.15" y="350.15" width=".71" height=".71" transform="translate(-109.74 436.06) rotate(-45)"/>
    <path class="st5" d="M165.84,220.97l1.25-1.38-1.25,1.38Z"/>
    <path class="st1" d="M165.07,223.02l-.08-1.1.84-.95,1.25-1.38,11.36-3.84c4.33-4.09,9.07-7.15,14.22-6.08.52,3.04,1.65,3.19,3.07,2.73l6.14-2.02c-.34,5.59,2.78,8.38,7.37,9.89s8.6.08,10.89-4.27c18.54,4.83,12.14,16.27,19.79,23.4-1.06,3.49-2.02,7.82-1.12,11.82,1.79,2.96,4.02,5.19,7.75,7.42,2.16,3.89,1.97,12.11-1.93,14.35-5.48-.74-12.04,1.92-13.22,6.52-1.29,5.04,1.81,9.49,6.25,12-.29,2.79-3.12,5.32-5.02,4.91l-6.87-1.45c-2.68,6.49-8.65,14.95-16.55,10.47-1.94,2.31-3.85,3.89-6.88,4.04s-6.94-2.61-9.46-2.7c-3.42-.13-7.32,1.39-11,1-2.63-.28-4.99-4.27-7.43-5.86-3.07-2-6.9-4.23-7.86-6.87l-.49-1.35,1.03-.48.53.6c2.58,1.71,6.74,2.18,8.82-.85,1.41-2.05,1.4-5.99.1-8.01-1.81-2.8-4.9-3.44-9.22-2.82l-.3-14.15,13.04-5.2c-4.93-2.9-9.7-3.67-15.54-4.67,3.8-3.4,4.85-7.43,3.79-11.06-1.22-4.15-5.54-5.22-10.53-5.55-.22-10,14.88-8.16,7.26-18.49ZM176.86,239.61c4.55,3.83,10.56,1.82,13.53-1.76,3.27-3.94,3.53-10.13-.54-13.5-4.37-3.62-10.68-1.91-12.88,2.17-2.63,4.87-.4,9.77,4.42,11.88l-4.53,1.21ZM218.97,233.38c-5.35,2.07-6.5,7.95-4.84,12.18s7,6.32,10.9,4.84c4.89-1.85,6.86-7.12,5.38-11.45-1.56-4.58-6.17-7.61-11.43-5.57ZM186.29,257.46c-4.53,1.9-4.51,7.81-3.08,10.95,2.29,5.03,7.16,5.68,10.84,3.86,4.59-2.27,5.08-7.87,3.48-11.43-1.81-4.02-7.06-5.12-11.23-3.38ZM215.39,261.65c-3.92,1.98-3.71,7.88-1.91,10.48,2.72,3.93,7.47,4.29,10.19,2.71,4.74-2.75,4.24-7.72,2.6-10.92-1.91-3.72-7.21-4.14-10.88-2.28ZM186.2,280.31c-.75.99-1.71,2.93-1.78,3.78s2.56,2.31,2.95,1.56l1.64-3.19c.38-.74-2.23-2.9-2.8-2.15ZM197.61,284.85c-4.38,2.23-5.39,7.88-2.52,11.47,2.69,3.37,7.39,3.96,11.03,1.47s5.18-6.35,2.69-10.25c-2.24-3.51-7.26-4.7-11.19-2.69Z"/>
    <path class="st5" d="M516.64,458.24l-.62-1.24.62,1.24Z"/>
    <path class="st7" d="M207.35,398.3l2.47.54c.82.18,2.35,2.41,1.53,2.61l-2.92.72c-.81.2-1.12-2.06-1.08-3.87Z"/>
    <rect class="st7" x="238.15" y="217.15" width=".71" height=".71" transform="translate(-83.94 232.35) rotate(-45)"/>
    <path class="st2" d="M280.73,318.95c-1.65,2.08-8.02,3.35-10.18,1.75-1.95-1.45-1.27-6.65.02-8.54s4.98-2.23,7.54-.88c2.13,1.13,4.95,4.75,2.62,7.67ZM272.82,312.63c-1.22.28-1.43,4.93-.22,5.12s4.05.28,5.59.18c1.21-.08.72-3.38-.29-4.22-.95-.79-3.36-1.47-5.08-1.08Z"/>
    <path class="st5" d="M289.97,329.56c2.87-.59,4.51.98,4.59,3.12.06,1.5-1.59,4.18-2.97,4.05-1.49-.15-3.97-1.42-5.09-2.78-.96-1.17,1.27-3.94,3.47-4.39Z"/>
    <path class="st2" d="M273.48,328.29c1.52-.59,4.61.94,4.72,2.29.12,1.51-1.19,3.96-2.46,4.69-1.45.84-4.09.22-4.58-1.1-.7-1.9.22-5.07,2.32-5.89Z"/>
    <path class="st5" d="M274.14,292.33c.98-.48,3.96,1.36,3.45,2.18-.56.9-1.77,2.46-2.52,3.08s-2.7-.52-3.23-1.33.7-3.14,2.3-3.92Z"/>
    <path class="st7" d="M570.71,317.63c1.11-.36,2.39-.68,2.27-.26l-.53,1.76c-.13.42-1.13-.67-1.73-1.5Z"/>
    <path class="st2" d="M352.89,516.46c2.53,52.61,6.08,105.11,4.49,157.87-5.88-53.32-6.09-105.73-6.51-158.59l2.02.72Z"/>
    <path class="st2" d="M428.16,521.56c.41,52.06.38,103.85-4.02,155.91-2.93-52.84.29-104.57,1.89-156.44l2.13.53Z"/>
    <path class="st2" d="M467.11,513.57l-.68-2.31,2.74-.57c-2.08,55.79-1.89,110.24-9.72,165.66-.21-54.55,4.46-108.76,7.65-162.77Z"/>
    <path class="st2" d="M313.71,507l9.19,135.87.79,30.02c-8.37-53.12-10.67-107.2-11.24-161.78l-.37-3.47c-.06-.6,1.25-.71,1.63-.64Z"/>
    <path class="st2" d="M390.03,658.79c-2.7-48.65-4.09-96.31-.58-145.75,3.82,48.2,3.57,96.78.58,145.75Z"/>
    <polygon class="st5" points="389.4 659.16 391.08 661.04 390.83 668.98 388.98 669.01 389.4 659.16"/>
    <path class="st5" d="M352.89,516.46l-2.02-.72.57-8.97c1.15,3.38,1.27,5.97,1.45,9.69Z"/>
    <path class="st5" d="M428.16,521.56l-2.13-.53c.09-2.97.29-5.26,1.55-8.31l.58,8.84Z"/>
    <path class="st2" d="M391.08,661.04l-1.68-1.88,1.68,1.88Z"/>
    <path class="st2" d="M447.98,342.99c6.78,7.33,14.31,18.31,7.12,22.26l6.99,10.63c2.56,3.9,4.74,8.17,5.41,13.6l-13.52-19.37c-.7-1-1.79-2.75-2.12-3.63-.39-1.05,1.64-3.07,2.56-4.62l-10.4-11.62,5.52.25-3.44-6.76,1.87-.74Z"/>
    <path class="st5" d="M446.93,341.12l1.06,1.86-1.87.74-1.86-.69.04-1.92v-1.21c.21-.03.44-.1.56-.03l2.08,1.25Z"/>
    <path class="st4" d="M446.93,341.12l-2.08-1.25c-.3-.15,1.56-1.43,1.7-.91l.38,2.17Z"/>
    <path class="st4" d="M444.29,341.11v-1.21s0,1.21,0,1.21Z"/>
    <path class="st2" d="M486.74,669.25c-1.02-17.34.68-34.39,2.45-52.32l10.68-108.02c-.36,53.95-5.29,106.72-13.13,160.34Z"/>
    <path class="st2" d="M509.72,658.13c2.8-52.3,9.68-104.27,16.88-157.36-1.56,52.3-7.24,104.44-16.88,157.36Z"/>
    <path class="st4" d="M446.39,263.67l2.01-6.55.88-3.01,1.81-6.96c.13-.48-.32-1.77-.38-2.29l2.42-10.71c.11-.73-.23-2.52-.34-3.13l1.76-5.41c5.37-.53,9.56-1.25,13.41-4.82,1.37-1.27,2.14-4.95,1.67-6.79-.53-2.1-3.76-4.14-5.71-3.81,1.16,2.52,2.32,4.56,2.05,5.84-1.11,5.12-9.73,5.24-17.09,5.23-.33-.09-1.61-.46-2.08-.42l-18.12-3.99,6.4,4.96-1.13.48c-9.99-.7-19.22-3.36-29.01-7.53.9,1.99,2.68,4.4,3.95,5.01l-3.2,1.58c-1.48-.51-3.62-1.29-4.68-2.14l-2.92-2.33.31,3.05c.06.61.08,1.95-.58,2.25l-2.64-1.13c-.88-1.42-4.01-3.45-5.68-3.17-2.17.36-5.16,1.83-6.6,3.19h-1.25c-6.41,1.97-13.08,3.84-19.59,3.93l1.66-1.86,1.16-1.72c1.93-2.86-13.92,4.44-22.18,3.7l4.19-2.85c1.56-1.06,2.44-1.68,4.77-3.94-1.67.25-4.79.49-6.63,2.14-.33-.12-1.36.79-1.68.84-.57-.1-1.95-.55-2.09-1.13l-.36-2.54,10.9-1.95.95,1.66c.89-.39,1.93-.21,2.7.57.84.98,0,0,1.3,2.08,3.82-3.99,4.81-4.18,8.12-3.67,3.71.57,5.41,1.9,8.25,5.33l16.71-6.52c6.7,6.38,15.11-9.02,24.45,1.53,5.69.82,11.27.29,16.6-1.89,6.31,2.16,12.41,2.91,18.69,2.37,1.39.88,3.55,2.22,4.58,1.78l3.78-1.6,4.97-.96c1.04-.2-2.75-7.72.82-9.07,1.21-.46,3.7.78,5.01,1.8,3.7,2.89,3.25,6.24,2.17,10.27-2.67,9.91-9.94,5.67-14.88,10.36-2,1.89-2.73,25.57-8.52,37.41s-14.26,23.07-24.23,30.69c-13.76,10.53-27.56,12.7-44.62,11.42-37.07-2.78-61.02-43.59-62.12-78.33-4.99,1.15-9.89.29-12.55-2.33-5.02-4.96-1.7-14.36,1.6-15.61,1.11-.42,4.48.72,4.57,1.7-1.32,3.82-1.19,7.66,1.88,9.53-1.18.14-4.12-1.08-4.55-2.37-.56-1.65.1-4.28,1.01-6.74-2.1-.81-5.07,2.25-5.25,4.58-.17,2.19,1.82,7.03,4.02,7.89l11.81,3.16-.21,2.24-.03,1.07.64,5.08c.69,5.49,2.03,11.81,5.38,15.8l-.15,1.84.2,1.35c0,.15-.09.44-.18.77l5.5,11.21.81,2.77c.22.75,1.24,1.86,1.87,2.35,7.11,9.99,15.8,20.26,27.39,25.18,17.46,9.13,35.99,9.34,52.83.89,5.17-2.6,10.58-5.61,13.87-10.72l.82-.78,4.55-4.9,1.25-1.21,8.62-10.6M366.5,220l-.5.5.5.5.5-.5-.5-.5Z"/>
    <path class="st2" d="M453.4,284.04l2.5-16.38c4.71,1.62,3.73,5.26,4.03,8.86.26,3.12-2.04,5.96-6.52,7.53Z"/>
    <path class="st4" d="M338.97,218.02l1.96-.35.36,2.54c.14.58,1.53,1.03,2.09,1.13l-7,3.37c-3.04-1.67-4.17-2.57-7.68-1.55l2.79-1.94,6.57-2.98.91-.22Z"/>
    <polygon class="st4" points="331.49 221.23 328.7 223.16 321.26 225.32 312.83 223.78 331.49 221.23"/>
    <path class="st4" d="M338.97,218.02l-.91.22.91-.22Z"/>
    <path class="st4" d="M298.75,260.17l.13-1.21-.13,1.21Z"/>
    <path class="st5" d="M351.83,215.73l.95,1.66-.95-1.66Z"/>
    <path class="st2" d="M295.68,627.43c.85,13.47,2.83,24.87,1.74,37.83-8.92-56.46-14.86-113.38-15.84-170.58l14.1,132.75Z"/>
    <path class="st2" d="M279.27,656.82c-7.35-47.37-12.85-95.05-17.31-142.83,7.72,45.94,14.54,92.7,18.5,140.05l.58,2.42c.13.55-1.52.5-1.78.36Z"/>
    <path class="st4" d="M280.1,371.09l-2.25,6.2c-.29-1.02-.61-2.51-.56-3.39.06-1.06,1.96-3.1,2.81-2.81Z"/>
    <path class="st4" d="M268.58,371.19l-5.55-.23,2.37-.99c.51-.13,1.59.59,3.18,1.22Z"/>
    <path class="st2" d="M176.86,239.61l4.53-1.21c-4.82-2.11-7.05-7.01-4.42-11.88,2.2-4.08,8.51-5.79,12.88-2.17,4.07,3.37,3.81,9.56.54,13.5-2.97,3.57-8.98,5.59-13.53,1.76Z"/>
    <path class="st2" d="M218.97,233.38c5.26-2.04,9.86,1,11.43,5.57,1.48,4.34-.48,9.6-5.38,11.45-3.89,1.48-9.22-.58-10.9-4.84s-.5-10.11,4.84-12.18Z"/>
    <path class="st2" d="M186.29,257.46c4.18-1.75,9.43-.65,11.23,3.38,1.6,3.56,1.11,9.16-3.48,11.43-3.68,1.82-8.55,1.17-10.84-3.86-1.43-3.14-1.45-9.05,3.08-10.95Z"/>
    <path class="st2" d="M197.61,284.85c3.93-2,8.95-.81,11.19,2.69,2.49,3.9.8,7.86-2.69,10.25s-8.34,1.9-11.03-1.47c-2.87-3.59-1.86-9.24,2.52-11.47Z"/>
    <path class="st2" d="M215.39,261.65c3.67-1.85,8.97-1.44,10.88,2.28,1.64,3.2,2.13,8.17-2.6,10.92-2.71,1.58-7.46,1.21-10.19-2.71-1.8-2.6-2-8.5,1.91-10.48Z"/>
    <path class="st2" d="M186.2,280.31c.57-.75,3.18,1.41,2.8,2.15l-1.64,3.19c-.39.76-3.02-.71-2.95-1.56s1.03-2.79,1.78-3.78Z"/>
    <path class="st6" d="M411.45,87.14l-1.62-.42c-.52-.13-.98-.57-1.85-1.23-.44-.34,2.15-.76,2.55-.38l1.47,1.37.53.5,1.47.53.79.73-.56.48-.73-.72-1.49-.5-.56-.36Z"/>
    <path class="st2" d="M573.27,243.13c-11.91-27.8-31.43-49.55-51.43-74.3,23.99,18.25,41.57,45.52,52.81,73.3l.04.77,1.55,4.5.28.79-.04,1.49-1.12-1.68-1.53-4.46-.57-.43Z"/>
    <path class="st2" d="M398,154.61c6.58-2.55,13.23.67,15.37,6.38,2.29,6.1-.36,12.95-6.36,15.46s-12.34.34-14.93-5.91c-2.35-5.68-1.08-13.21,5.91-15.93Z"/>
    <path class="st2" d="M360.02,161.67c6.9-2.79,13.7.84,15.5,7.14,1.67,5.81-.18,12.89-6.69,15.28-5.51,2.02-12.34-.74-14.83-6.58-2.35-5.52-.56-13.18,6.01-15.84Z"/>
    <circle class="st2" cx="339.5" cy="338.5" r=".56"/>
    <rect class="st4" x="531.15" y="426.15" width=".71" height=".71" transform="translate(-145.91 500.75) rotate(-45)"/>
    <path class="st5" d="M272.82,312.63c1.72-.4,4.14.29,5.08,1.08,1.01.84,1.5,4.14.29,4.22-1.54.1-4.38.01-5.59-.18s-1.01-4.84.22-5.12Z"/>
    <path class="st3" d="M443.55,270.59"/>
    <polygon class="st4" points="412.26 223.28 413.19 224.25 405.71 221.37 408.91 219.79 412.26 223.28"/>
    <path class="st2" d="M453.13,234.16l-2.42,10.71"/>
    <path class="st2" d="M441.2,273.26l-7.56,10.42"/>
    <path class="st2" d="M449.28,254.11"/>
    <path class="st2" d="M441.96,272.21l.18-2.51"/>
    <path class="st4" d="M401.03,219.23c-1.27.03-1.78.15-1.64.78l.68,3.16-2.23-.96c.66-.31.64-1.64.58-2.25l-.31-3.05,2.92,2.33Z"/>
    <rect class="st4" x="366.15" y="220.15" width=".71" height=".71" transform="translate(-48.57 323.74) rotate(-45)"/>
    <path class="st2" d="M332.94,275.22c-.63-.49-1.65-1.6-1.87-2.35"/>
    <path class="st2" d="M324.94,258.13l-.2-1.35.2,1.35Z"/>
    <path class="st2" d="M318.86,234.06l.03-1.07-.03,1.07Z"/>
  </g>
</svg>
