<?xml version="1.0" encoding="UTF-8"?>
<svg version="1.1" viewBox="0 0 1248 832" width="1248" height="832" xmlns="http://www.w3.org/2000/svg">
<path transform="translate(148,321)" d="m0 0h24l18 3 13 5 18 10 5-2 13-8 13-5 18-3h22l23 5 11 5 5-1 8-5 9-2h67l16 3 13 4 5-1 9-5 4-1h68l15 2 15 5 11 8 12 12 6-15 6-7 9-4 8-1h50l10 3 6 4 5 6 4 8 8-6 11-7 10-5 15-4 9-1h22l20 4 10 4 15 8h2l6-8 10-5 6-1h52l9 2 7 4 6-1 8-4 5-1h36l10 3 8 5 5-2 6-4 7-2h36l9 3 6 3 6-2 6-3 5-1h52l10 2 8 5 5 6 6 21 8 35 6 25 10 41 7 29v10l-4 9-4 5-8 4-3 1-14 1h-24l-12-3-8-6-5-7-4 5-7 6-8 4-6 1h-62l-14-2-8-5-3-3-5 1-7 6-12 3h-67l-10-2-8-5-6-7-3-3-2 5-7 7-9 4-6 1h-61l-10 2h-27l-18-4-5-2-7 1-5 2-12 1h-18l-15-1-12-6-6-8v-2h-2l-2 4-7 8-9 4-13 1h-20l-12-1-8-3-9 1-10 2-17 1h-107l-10-2-10-6h-4l-10 6-9 2h-31l-9-2-9-5-7 1-18 6-9 2-18 1-18-2-16-5-12-5-5 2-5 4-11 3h-28l-10 2h-26l-18-4-12-5-11-7-8-7-9-12-7-16-3-13v-66l3-15 5-12 7-11 9-10 8-7 17-8 14-4zm0 22v1h7v-1zm16 0m104 0v1h9v-1zm18 0m450 0v1h24v-1zm-596 2m161 0m55 0m6 0m2 0v1h41v-1zm46 0v1h5v-1zm77 0v1h7v-1zm11 0m2 0m2 0v1h16v-1zm17 0v1h5v-1zm7 0v1h5v-1zm102 0m5 0m14 0m4 0m2 0m6 0m196 0m3 0m2 0m4 0m4 0m2 0m3 0m8 0m58 0m4 0m4 0m2 0m2 0m52 0m10 0m4 0m60 0m2 0v1h32v-1zm-943 1m281 0v1h5v-1zm117 0 4 1zm128 0m362 0m88 0m-979 1 1 2 1-2zm329 0m367 0m56 0m-754 1m925 0m57 0 1 2zm-865 1m214 0m366 0 1 2zm-702 2m336 0 1 4zm202 0v5h1v-5zm222 1m31 1m73 0v6h1v-6zm-385 1 1 2zm222 0 1 4zm198 0m30 1m-593 2 1 2zm455 0m-91 1 1 2zm-710 1m-1 1m710 3v5h1v-5zm-363 1v5h1v-5zm141 0 1 4zm96 0 1 2zm291 0v5h1v-5zm-761 1-1 2h2zm438 0m222 0 1 2zm28 0 1 4zm108 0 1 3zm28 1m-452 7m93 0 1 3zm-588 1 1 2zm118 0m693 0m134 0m-947 1m497 0m389 0 1 4zm-528 1m231 0m-93 1 1 2zm-498 5 1 3zm888 3 1 3zm-534 1m6 0m228 0 1 2zm169 0 1 2zm34 0m132 0m-924 1m497 0m222 0m-719 2m-1 7 1 4zm322 1 1 2z" fill="#010101"/>
<path transform="translate(735,343)" d="m0 0h28l15 4 12 6 10 9 3 5-1 5-18 18-5-1-7-7-9-5-4-1h-20l-9 4-4 7-1 31v25l1 10 5 8 8 4 14 1 11-2 3-1v-17h-24l-3-2v-27l2-2h57l3 3 1 48 9-40 11-52 1-7 1-4 1-11 2-3 1-3 2-1h37l1-1h7l8 1 3 5 2 10 2 9 5 22 18 79 3 14v-110l-1-3v-8l1-10v-7l2-1h34l10 19 17 33 10 20v-42l-1-13v-5l1-4v-7l1-1h34l1 2v141h2l1-9 14-68 8-37 2-8 2-13 2-7 2-1h54l3 13 13 55 14 60 4 17v4h-36l-2-5-6-29v-3h-33l-2 17-3 18-1 2h-70l-12-22-13-25-9-16-6-12v74l-1 1h-71l-4-16-4-21h-32l-2 15-4 21-1 1h-53l-5-2-12 4-5 1h-22l-16-4-11-6-10-9-7-12-4-14-1-15v-42l3-17 2-2 3-9 3-1 1-4 5-5 7-6 11-5zm135 2m3 0m-44 2m-2 7 1 4zm-1 4 1 2zm164 6v5h1v-5zm-73 1 1 4zm-58 21 1 2z" fill="#1CBAEA"/>
<path transform="translate(919,345)" d="m0 0h34l10 19 17 33 10 20v-42l-1-13v-5l1-4v-7l1-1h34l1 2v141h2l1-9 14-68 8-37 2-8 2-13 2-7 2-1h54l3 13 13 55 14 60 4 17v4h-36l-2-5-6-29v-3h-33l-2 17-3 18-1 2h-70l-12-22-13-25-9-16-6-12-2 14h-1l-1 6-2-1-2 1-13 1-10 1-1 2h-2l-2 3-1-45v-27l-1-3v-8l1-10v-7zm71 19v5h1v-5zm-73 1 1 4z" fill="#1CBAEA"/>
<path transform="translate(266,343)" d="m0 0h24l15 3 14 7 8 7 7 11 4 12 1 6v63l-4 16-7 11-9 8-14 7-15 3h-21l-15-3-12-6-10-9-7-11-4-16v-65l3-12 4-8h2l-1-3 11-11 11-6z" fill="#1BB9EA"/>
<path transform="translate(488,344)" d="m0 0h7l6 1 1-1h20l4 1h9l4 1 12 5 7 6 5 8 3 11v18l-4 11-3 4v2l8 5 7 8 4 10 1 4v22l-4 13-6 8-8 7-12 5-6 1h-79l-1-1-1-125h-1l1-17 1-5 2-1h23zm14 1v1h16v-1z" fill="#78FBF7"/>
<path transform="translate(148,321)" d="m0 0h24l18 3 13 5 18 10 5-2 13-8 13-5 18-3h22l23 5 11 5 5-1 8-5 9-2h67l16 3 13 4 5-1 9-5 4-1h68l15 2 15 5 11 8 12 12 6-15 6-7 9-4 8-1h50l10 3 6 4 5 6 4 8 8-6 11-7 10-5 15-4 9-1h22l20 4 10 4 15 8h2l6-8 10-5 6-1h52l9 2 7 4 6-1 8-4 5-1h36l10 3 8 5 5-2 6-4 7-2h36l9 3 6 3 6-2 6-3 5-1h52l10 2 8 5 5 6 6 21 8 35 6 25 10 41 7 29v10l-4 9-4 5-8 4-3 1-14 1h-24l-12-3-8-6-5-7-4 5-7 6-8 4-6 1h-62l-14-2-8-5-3-3-5 1-7 6-12 3h-67l-10-2-8-5-6-7-3-3-2 5-7 7-9 4-6 1h-61l-10 2h-27l-18-4-5-2-7 1-5 2-12 1h-18l-15-1-12-6-6-8v-2h-2l-2 4-7 8-9 4-13 1h-20l-12-1-8-3-9 1-10 2-17 1h-107l-10-2-10-6h-4l-10 6-9 2h-31l-9-2-9-5-7 1-18 6-9 2-18 1-18-2-16-5-12-5-5 2-5 4-11 3h-28l-10 2h-26l-18-4-12-5-11-7-8-7-9-12-7-16-3-13v-66l3-15 5-12 7-11 9-10 8-7 17-8 14-4zm-1 6-17 4-16 8-12 11-6 7-7 14-4 14-1 8v56l3 16 6 15 9 12 9 8 10 6 14 5 17 3h15l17-3h30l8-3 6-7 2-2 9 6 12 5 13 3 9 1h15l19-3 15-6 8-4 5 6 5 3 4 1h38l10-4 6-9 1-4 7 11 7 5 4 1h125l15-3 5-2 4 1 5 3 4 1h41l10-5 4-5 3-11 2-15 3 1 4 20 4 8 6 5 6 2h40l8-3 2-2 5 1 15 5 14 2h14l17-3 5-1 5 1h54l8-3 5-5 4-8 3-16v-4l3 1 5 23 6 8 5 3 4 1h76l10-5 5-8 2-7 6 11 4 5 9 4h74l8-3 6-7 3-8 3-17 3-1 4 21 4 8 6 5 5 2h41l9-4 4-5 2-4v-12l-14-57-17-73-4-15-4-6-5-4-5-2h-60l-6 3-5 5-2 3-7-8-7-3h-40l-8 4-5 7-2 5-6-10-8-5-3-1h-40l-7 3-5 5-2 3-8-8-7-3h-60l-6 3-5 5-4 9-1 3-9-8-14-8-17-5-6-1h-29l-17 4-16 8-10 9-8 9-2 1-1-9-4-11-4-5-9-4h-59l-8 4-6 8-6 26v4h-2l-1-7-6-12-9-10-13-8-13-4-8-1h-73l-8 4-4 4v2l-17-7-14-3h-74l-8 4-5 6v2l-12-7-14-5-11-2h-28l-17 4-16 8-11 9-8-6-11-7-10-4-17-4z" fill="#F6FBFD"/>
<path transform="translate(347,345)" d="m0 0h72l4 1 13 5 9 7 7 9 4 12 1 8v23l-3 12-5 10-5 6-9 6h-3l12 25 11 22v3l-34 1-4-4-8-15-8-16-6-11h-14l-1 45h-34l-1-11v-136zm75 52 1 2z" fill="#1BB9EA"/>
<path transform="translate(610,345)" d="m0 0h52v2h2l1 8h1l5 23 21 93 5 22-1 1h-36l-3-13-5-23-32-1-6 36-1 1h-36l-1-5 11-49 11-53 2-10 2-9h2l-1-5 4-16z" fill="#1CBAEA"/>
<path transform="translate(146,343)" d="m0 0h27l16 4 12 6 8 7 5 7-1 5-18 18-5-1-9-9-10-4h-22l-8 4-4 6-1 7v55l3 10 6 5 5 2 12 1 12-2 2-1 1-17h-23l-3-2v-27l2-2h57l2 2v76l-1 1h-20l-6-1-9 3-5 1h-24l-15-4-10-5-11-10-6-10-4-15-1-13v-47l1-9 1-3 4-10 7-11 12-10 11-5 5-1zm-10 3m-3 1 1 2 1-2zm-2 1m-5 3m-10 8m-1 1m-9 14 1 2z" fill="#1CBAEA"/>
<path transform="translate(735,343)" d="m0 0h28l15 4 12 6 10 9 3 5-1 5-18 18-5-1-7-7-9-5-4-1h-20l-9 4-4 7-1 31v25l1 10 5 8 8 4 14 1 11-2 3-1v-17h-24l-3-2v-27l2-2h57l2 1v54h-2v2h-2v2l-9 1h-20v-2l-5-2-2-1v2l-4 2h-9l-7-2v-3l-7-2-2 3-5-1-5 3-13 2-5 3 2 4-4-2-7-11-4-11-1-5-1-15v-42l3-17 2-2 3-9 3-1 1-4 5-5 7-6 11-5z" fill="#1CBAEA"/>
<path transform="translate(919,345)" d="m0 0h34l10 19 17 33 10 20v-42l-1-13v-5l1-4v-7l1-1h34l1 2v101h-1v-6l-4 1-1 2-7-3-12-1h-12l-3-1h-7l-9 2h-4l-12-23-2 14h-1l-1 6-2-1-2 1-13 1-10 1-1 2h-2l-2 3-1-45v-27l-1-3v-8l1-10v-7zm71 19v5h1v-5zm-73 1 1 4z" fill="#57EAF2"/>
<path transform="translate(266,343)" d="m0 0h24l15 3 14 7 8 7 7 11 4 12v64h-1l-1-6-2 2h-9l-8-3-7-2-3-1-1 13h-1l-2-61-3-8-6-4-3-1h-21l-8 3-4 5-1 4-1 62h-1l-1-10h-15l-13 4h-4l-1-5v-52l3-12 4-8h2l-1-3 11-11 11-6z" fill="#76FAF7"/>
<path transform="translate(463,425)" d="m0 0h1l1 14 1 2h10l14-6h5l1 1 2-4h35l8 3 2 5 6 1h6l3-1h10l2 1v2l4-2v-4l-2-1 1-6 3-2 3 10v22l-4 13-6 8-8 7-12 5-6 1h-79l-1-1z" fill="#1CBAEA"/>
<path transform="translate(347,345)" d="m0 0h72l4 1 13 5 9 7 7 9 4 12 1 8v23l-3 12-2 3-2-3-5 1v-3h-2l-1 2v-2h-12l-6-2h-2l2-6h-2v-15l-1-13-3-5-5-2-34-1v42l-1-2-2-1h2v-2l-4 1v2l-11 2-1 1-12 2-2-1-1 8h-1v-82z" fill="#77FBF7"/>
<path transform="translate(146,343)" d="m0 0h27l16 4 12 6 8 7 5 7-1 5-18 18-5-1-9-9-10-4h-22l-8 4-4 6-1 7-1 43-1 4-15 1h-6l-5 2-4 1-1-1-2 2-1-5v-47l1-9 1-3 4-10 7-11 12-10 11-5 5-1zm-10 3m-3 1 1 2 1-2zm-2 1m-5 3m-10 8m-1 1m-9 14 1 2z" fill="#76F9F7"/>
<path transform="translate(610,345)" d="m0 0h52v2h2l1 8h1l5 23 7 31v8l-1-3h-2v2l-10 3-11 1h-5l-2-2-1 3h-2l-8-40-5 25-2 9-2 1v-4l-6 5-5 2-13 1-8-3-2 3v-9l6-28 1-8 2-7h2l-1-5 4-16z" fill="#77FAF7"/>
<path transform="translate(869,344)" d="m0 0h7l8 1 3 5 2 10 2 9 10 44v9l-2-3-2 2-1-2h-11l-5-2v-2l-9-1-3-1-1 3h-2l-6-28-1-6h-1l-8 42h-2l-1-5h-12l-3-2-7-2-5-2v-2h-2v-9l6-28 1-7 1-4 1-11 2-3 1-3 2-1h37zm1 1m3 0m-44 2m-2 7 1 4zm-1 4 1 2z" fill="#77FAF7"/>
<path transform="translate(1059,345)" d="m0 0h54l3 13 13 55 1 5v8l-2-4-4-3-11-1-1-3-3-2-13-1-3 1-3-12-4-20-2 7-5 26h-3v-2l-8 2-2 1v2l-14 2-9-1v-7l8-37 2-8 2-13 2-7z" fill="#77FAF7"/>
<path transform="translate(270,375)" d="m0 0h21l8 4 4 6 1 4v63l-3 7-5 5-5 2h-22l-8-4-4-6-1-5v-63l3-7 5-4z" fill="#010101"/>
<path transform="translate(379,376)" d="m0 0h34l6 3 3 5 1 19-1 9h2l-2 6 3-1 5 2 15 1 1 2 5-1 1 6-6 9-11 8h-4v2l-2-1v-1l-15-2-4-3-4 1-3 1-10-1-1-1h-8l-7 2h-28l1-5h-3v13h-1v-21l1-8h3l12-2 1-1 11-1v-2l4-1z" fill="#3CD6EF"/>
<path transform="translate(735,343)" d="m0 0h28l15 4 12 6 10 9 3 5-1 5-18 18-5-1-7-7-9-5-4-1h-20l-9 4-4 5-8 1-3 1h-7v2h-11v-2h-2l-1 2-2 5h-1v-12l6-15 3-1 1-4 5-5 7-6 11-5z" fill="#76F9F7"/>
<path transform="translate(496,374)" d="m0 0h27v2l5 1 3 3 2-2 3 9 1 2h23l4-1 1 10-5 10-1 3 2 2-6 2-5 2-10 1h-6l-1-3-3 1-7-2h-10l-15 3-4 2-1-2-7-1-4 1-4-1h-8l-4-2-1 5h-1l1-38 2 1 2 4 10 1 1 2 4-2 2-4v4h3l1-2 5 1z" fill="#56E9F2"/>
<path transform="translate(801,418)" d="m0 0h1l1 52 2 1 1 2 7 2 8-1 8-2h6l2-1 1 12-2 10-1 1h-53l-5-2-12 4-5 1h-22l-16-4-11-6-6-5-1-4-1-2 10-4 9-1 5-3h5l3-2 7 3v3l12 1 7-1v-2l10 4h26v-2h2v-2h2z" fill="#08A0E1"/>
<path transform="translate(917,401)" d="m0 0h1l1 41 4-1 17-3h6l3-1 1-6h1l1-5h1l1 17v50l-1 1h-65l-5-1-3-15 5-3h20l7-3 3 3 2 9z" fill="#1BB9EA"/>
<path transform="translate(1085,378)" d="m0 0 2 3 6 30v2h2l1-3v2l6-1 8 1 5 5 11 1 4 4 2 4 1 5v8l-5 2-12 1-6 1-4-1h-43l-3-1-19-1v-4l-2 4v-9l3-15 1 2h12l11-1 1-4 9-1 1-2 1 4 5-26z" fill="#3AD5EF"/>
<path transform="translate(635,379)" d="m0 0 2 2 7 35v5h2l1-4 3 2h10l12-3h3v-2l4-1 6 27v8l-1-3-6-1-1-1-10-1h-26l-22-1-5 1h-9l-14 4-3-2v-9l4-19 2 1 2-2v3l11 1 9-1 6-3 2-3h3l1 3z" fill="#3AD5EF"/>
<path transform="translate(991,345)" d="m0 0h34l1 2v60l-1 8-3-2-5 1-3 1-3 4-10 1h-7l-2 3-1-23-1-2v-23l-1-13v-5l1-4v-7zm-1 19v5h1v-5z" fill="#78FBF7"/>
<path transform="translate(857,379)" d="m0 0 2 3 5 25 1 9h2v-6l1 3 3-1v2h7l2 1v2l5 1h14l1 1 2-2 2 16-2 5-7 1-6 2-23-1h-23l-18 1-6 2-6 1-2-1-2 4v-8l7-32 1 4h2v2l5 1 8 3 2 1h13v6h2l1-10 6-32z" fill="#3AD5EF"/>
<path transform="translate(462,387)" d="m0 0 2 2 1 24 6 2h9l3 1 6-1 7 2 13-3 4-1h10l10 2 1 2h12l7-2 4-2h6l8 7 4 6v5h-1l-1 5 2 6-5 1v-2h-13l-4 1-7-1-1 3v-4h-2l-2-4-8-3h-35l-2 4-1-1-9 1-6 4-6 1-8-1-2 1-1-17z" fill="#3BD6EF"/>
<path transform="translate(496,469)" d="m0 0 1 2 5 1 1 3 7-1 18 1h5v-3l6-1h8l8 1 5 1 5 3 4 1 1 3-9 8-12 5-6 1h-79l-1-1v-21l3-1h19l3 2 3-3z" fill="#09A1E1"/>
<path transform="translate(919,345)" d="m0 0h34l10 19 8 15-1 4h-3l-1 4-10 1-9 1h-11l-9-3-4-4-3-2-1 27h-1l-1-6v-27l-1-3v-8l1-10v-7zm-2 20 1 4z" fill="#78FBF7"/>
<path transform="translate(722,384)" d="m0 0 4 1-2 55-3-1-12 1h-8l-5 3-3 1-2 4-2-11v-42l1-7 2 2 3-3h2v2l7-1 4 1v-2z" fill="#55E8F2"/>
<path transform="translate(334,374)" d="m0 0 2 3 2 6v64h-1l-1-6-2 2h-9l-8-3-7-2-3-1-1 13h-1l-2-61-3-10 3 1 2 4h11v3l8 1h7l2-2v3l1-1-1-11z" fill="#58EAF3"/>
<path transform="translate(135,381)" d="m0 0 1 3-1 52-1 4-15 1h-6l-5 2-4 1-1-1-2 2-1-5v-47l3-1 4-5 6 5 4-1 2-3 1 2 1-2h8l1-3 5-2z" fill="#58EAF2"/>
<path transform="translate(222,381)" d="m0 0 2 4 2-2 1 6 10 1 2-1v2l7-1 8 2 2-3v61h-1l-1-10h-15l-13 4h-4l-1-5v-52z" fill="#58EBF3"/>
<path transform="translate(259,470)" d="m0 0h6l-1 4 11 1 10-1h7l5-1v-2h8v2l3-1 16 3 3 2-6 7-5 5-11 5-15 3h-21l-15-3-12-6-9-8-1-6h3l6-2h11l8 1z" fill="#08A0E1"/>
<path transform="translate(152,470)" d="m0 0 1 3v2l5-1 16 2h14l2-1v2l4-3 8 2 9 6-1 10-10 2h-9l-6-1-9 3-5 1h-24l-15-4-10-5-4-4-3-6 9-2 5-3 18-1z" fill="#08A0E1"/>
<path transform="translate(153,415)" d="m0 0h57l2 2v34l-1-4-6-1-2-4-11-1h-8l-7 2v2h-25l-1-1v-27z" fill="#3AD5EF"/>
<path transform="translate(968,439)" d="m0 0 4 2 7-2h7l9 1h12l9 2 4 2 5-2 1 6v34h-1v-5l-7 1h-8l-7-4v-2l-7-1h-7l-4 1 4 8-1 2-6-10-13-25-2-5z" fill="#1CBAEA"/>
<path transform="translate(380,376)" d="m0 0h33l6 3 3 5 1 19-2 9-4 4-5 2h-31l-1-1z" fill="#010101"/>
<path transform="translate(990,399)" d="m0 0 2 1 1 18 1 2 17-2 3-4 5-2h5l1-5h1v41h-1v-6l-4 1-1 2-7-3-12-1h-12l-3-1h-7l-9 2h-4l-11-21 1-3h2v2h2v-2l3-2 15-1 3 1 1-5h2l4 9 2-3z" fill="#3AD5EF"/>
<path transform="translate(742,415)" d="m0 0h57l2 1v34h-1v-5l-5 1v-2l-4-1-3-1-3-3-6 2-11 1-1 2-5-2v-3l-19-1-1 5h-1v-27z" fill="#3BD5EF"/>
<path transform="translate(498,432)" d="m0 0h35l8 3 3 5v18l-4 5-4 2h-39v-32z" fill="#010101"/>
<path transform="translate(984,470)" d="m0 0 4 1 1-1h12l5 5 6 2h13l1 11h2l1-9 1-6 3 2v2l11-4 2-2 7 1 10 1 2 1 1 11-2 9h-70l-6-12-2-6z" fill="#08A0E1"/>
<path transform="translate(928,470)" d="m0 0 6 2v2h6l10 8 2-3 1 15h-65l-5-1-3-15 5-3h20l7-3 3 3 2 9 3-13z" fill="#08A0E1"/>
<path transform="translate(419,376)" d="m0 0 4 2 2 3 1 8h2v2l9-2 2-2v3h2v-2l4-1-7-1 1-3 14-1 1 1 2-4 1 8v23l-3 12-2 3-2-3-5 1v-3h-2l-1 2v-2h-12l-6-2h-2l2-6h-2v-15l-1-13-2-4z" fill="#56E9F2"/>
<path transform="translate(657,381)" d="m0 0 7 1 6 2-1 3h2v-5h1l6 27v8l-1-3h-2v2l-10 3-11 1h-5l-2-2-1 3h-2l-7-35v-2h2l1 2h5l1 1h8l-1-4h3z" fill="#55E8F2"/>
<path transform="translate(1117,378)" d="m0 0h1l1 6 1-5 2 4 8 35v8l-2-4-4-3-11-1-1-3-3-2-13-1-3 1-3-12-3-15v-5l3-1 3 1v2l9 2h3l-4-2 1-3 6 1 8-1z" fill="#55E8F2"/>
<path transform="translate(1050,378)" d="m0 0 2 3v3h2l-1 4h10l9-4 4-3 7-2 2-1-2 16-4 20h-3v-2l-8 2-2 1v2l-14 2-9-1v-7z" fill="#55E8F2"/>
<path transform="translate(823,374)" d="m0 0h1v6l4 1 1 5 9-1 12 2 3 2 2-1-1 10-5 26h-2l-1-5h-12l-3-2-7-2-5-2v-2h-2v-9z" fill="#56E8F2"/>
<path transform="translate(634,377)" d="m0 0h3l-1 4-5 25-2 9-2 1v-4l-6 5-5 2-13 1-8-3-2 3v-9l5-23 2 2 2-2h2v2l13-1 9-3 6-1z" fill="#55E8F2"/>
<path transform="translate(1025,371)" d="m0 0h1v36l-1 8-3-2-5 1-3 1-3 4-10 1h-7l-2 3v-22l1-12 7 1 7-1h4v-2l3-1-3-1v-2l3-2 10-1z" fill="#58EAF3"/>
<path transform="translate(893,382)" d="m0 0 2 4 6 27v9l-2-3-2 2-1-2h-11l-5-2v-2l-9-1-3-1-1 3h-2l-6-28 11-2 5 1 1 3h14z" fill="#55E8F2"/>
<path transform="translate(377,386)" d="m0 0h1l1 7v25l-1-2-2-1h2v-2l-4 1v2l-11 2-1 1-12 2-2-1-1 8h-1v-17l1-22 6 1 5-2 6-1h12z" fill="#58EBF3"/>
<path transform="translate(221,387)" d="m0 0h1v27h2l1 2h3l6 1 2 1h10l8-1 1-28h1v61h-1l-1-10h-15l-13 4h-4l-1-5z" fill="#3AD5EF"/>
<path transform="translate(498,375)" d="m0 0h25l6 3 2 4v13l-4 5-7 2h-22l-1-1v-25z" fill="#010101"/>
<path transform="translate(689,399)" d="m0 0h1l1 12 4 4v2l7 1 3-4 5-1 6 3 7 3 1 4v17l-3-1-12 1h-8l-5 3-3 1-2 4-2-11z" fill="#39D4EF"/>
<path transform="translate(919,411)" d="m0 0 1 2 17 2 10 4 1 1 2-2 1 5 1-7h2l-2 17h-1l-1 6-2-1-2 1-13 1-10 1-1 2h-2l-2 3v-27z" fill="#3BD6EF"/>
<path transform="translate(321,414)" d="m0 0 15 2 1 5 1 13v13h-1l-1-6-2 2h-9l-8-3-7-2-3-1-1 13h-1v-17l1-17h9z" fill="#3CD7F0"/>
<path transform="translate(100,407)" d="m0 0h1l1 14h4l1-2 10-3 3 1 11 1 3 1 1 2v15l-1 4-15 1h-6l-5 2-4 1-1-1-2 2-1-5z" fill="#39D4EF"/>
<path transform="translate(594,470)" d="m0 0h10l6 2 5 1 1 10-2 10-1 1h-36l-1-5 2-4 3-5 8-4 2-2h3l-1-3z" fill="#08A1E1"/>
<path transform="translate(408,467)" d="m0 0 3 3 5-1 6 2v2l5 1 9 2 7 2 5 3 6 8 1 5-34 1-4-4-4-7-1-6-4-9z" fill="#08A0E1"/>
<path transform="translate(354,469)" d="m0 0 10 1 2 4 3 1h9l1 1v16l-1 1-11 1h-12l-7-1-1-1v-12l1-4 2-1v-4z" fill="#08A0E1"/>
<path transform="translate(1139,471)" d="m0 0 2 2 2 5 2 4 2 8v4h-36l-2-5v-13h23l6 1z" fill="#08A1E1"/>
<path transform="translate(658,472)" d="m0 0 18 3 4 1v2l11 4 4 1 2 10-1 1h-36l-3-13z" fill="#09A1E1"/>
<path transform="translate(1085,378)" d="m0 0 2 3 9 45h-20l5-26z" fill="#010101"/>
<path transform="translate(857,379)" d="m0 0 2 3 5 25 3 14v5h-19l5-28z" fill="#010101"/>
<path transform="translate(635,379)" d="m0 0 2 2 8 40v5h-19z" fill="#010101"/>
<path transform="translate(740,417)" d="m0 0h1l1 19 1 2h15l4 1 1 3 3 1v2h-25l-1-1z" fill="#1BB8E9"/>
<path transform="translate(488,344)" d="m0 0h7l6 1 1-1h20l4 1h9l2 3h-11l-7 1h-32l-2-1v-2zm14 1v1h16v-1z" fill="#A5ECF7"/>
<path transform="translate(363,345)" d="m0 0 44 1v2l-2 1h-43l-2-1v-2z" fill="#BCFEFB"/>
<path transform="translate(1078,345)" d="m0 0h35l1 5v6l-3-4-1-2-33-1-2-1v-2z" fill="#B1FBFA"/>
<path transform="translate(869,344)" d="m0 0h7l8 1 3 5v7l-1-2h-2v-2h-2l-1-4-3-1-7 1h-16l-2-1v-2l8-1h7z" fill="#A9F5F9"/>
<path transform="translate(131,347)" d="m0 0h2l1 3-5 1v3l-7 4h-2l-2 5-6 4-2 3h-2l1-4 7-9 11-8z" fill="#92EDF6"/>
<path transform="translate(155,343)" d="m0 0h18l10 2 1 2-10 1-16-2-3 1h-7l-2-2 1-1z" fill="#91F7F8"/>
<path transform="translate(405,345)" d="m0 0h14l4 1 11 4 2 4-10-1-9-3-9-2z" fill="#8CF2F7"/>
<path transform="translate(154,416)" d="m0 0h57l-1 3v-2l-8 1-1 3-6-1-1-2h-38v2h-2l-2 2 1-5z" fill="#58EBF3"/>
<path transform="translate(795,375)" d="m0 0h2l-2 4-11 11-5-1-4-4 1-3 5 2v-2l3 1 3-3 4-1z" fill="#57E3F1"/>
<path transform="translate(649,345)" d="m0 0h13v2h2l1 9-1 3-5-5-1-4-3-1h-8l-2-1v-2z" fill="#A2FBFA"/>
<path transform="translate(538,346)" d="m0 0 11 4 4 3v2l-21-4-6-2v-2h11z" fill="#8DF4F8"/>
<path transform="translate(831,345)" d="m0 0h24l-2 2-20 1-4 10h-2l-1 5h-1l1-11 2-3 1-3z" fill="#61D3EF"/>
<path transform="translate(464,364)" d="m0 0h2l-1 43h-1l-1-18-1-3v-17z" fill="#7AEDF5"/>
<path transform="translate(917,362)" d="m0 0 2 1 1 10-1 34h-1l-1-6v-27l-1-3v-8zm0 3 1 4z" fill="#7AE9F5"/>
<path transform="translate(1059,345)" d="m0 0h18l-2 2-12 1v2l-4 4-1 3-3 1 1-9 1-3z" fill="#72E4F3"/>
<path transform="translate(713,351)" d="m0 0 4 1-3 5-5 2-3 5h-2l-4 5h-2v-3h2l1-4 5-5z" fill="#89F4F8"/>
<path transform="translate(608,346)" d="m0 0h18v1l-12 1-1 2-2-1-1 6-3 7h-2l1-12z" fill="#8FF7F8"/>
<path transform="translate(434,351)" d="m0 0 5 2 9 8 5 9 2 5v3l-3-1-5-12-6-7-5-3z" fill="#77E9F5"/>
<path transform="translate(108,371)" d="m0 0 2 3-1 4-3 3-1 9-2 3h-2v-9l1-3 3-8zm-2 3 1 2z" fill="#8CF1F7"/>
<path transform="translate(151,425)" d="m0 0h1l1 8 3 4 2 4 6 2v1l-12 1-1-1z" fill="#1BB8E9"/>
<path transform="translate(419,376)" d="m0 0 4 2 2 3v20h-2l-1-4-1-13-2-4z" fill="#6AE5F3"/>
<path transform="translate(737,344)" d="m0 0h24l-1 3h-24z" fill="#BEFEFC"/>
<path transform="translate(251,347)" d="m0 0h3v2l-8 5-3 5-7 3-4 2 6-7 5-6z" fill="#8BF4F8"/>
<path transform="translate(991,373)" d="m0 0h2v28l-3-3v-19z" fill="#76EAF4"/>
<path transform="translate(318,355)" d="m0 0 4 1 5 4 7 11v2l-4-2-7-9z" fill="#7AECF5"/>
<path transform="translate(610,345)" d="m0 0h37l-2 2-9 1-6 1-4-1v-2h-16z" fill="#59D7F0"/>
<path transform="translate(1014,345)" d="m0 0h11l1 2v10l-3-1v-6l-1-3-5 2-6-1v-2z" fill="#9AF6F9"/>
<path transform="translate(192,350)" d="m0 0 5 1 6 4 6 5-1 2-9-5-5-2v-3h-2z" fill="#7BECF5"/>
<path transform="translate(293,345)" d="m0 0h8l11 4 1 3-7-1-11-4z" fill="#89F3F7"/>
<path transform="translate(919,345)" d="m0 0h20l-2 2-17 1-2 5h-1v-7z" fill="#63D8F0"/>
<path transform="translate(783,350)" d="m0 0 5 2 9 7 3 3v2l-4-2-5-4-7-5z" fill="#6AE2F3"/>
<path transform="translate(465,345)" d="m0 0h22l-2 2-19 1-2 1-1-3z" fill="#56D2EE"/>
<path transform="translate(194,416)" d="m0 0h17l-1 3v-2l-8 1-1 3-6-1z" fill="#56E9F2"/>
<path transform="translate(882,345)" d="m0 0 3 1 2 6v5l-1-2h-2v-2h-2l-1-4-2-2z" fill="#95F5F8"/>
<path transform="translate(991,351)" d="m0 0h2l1 2v6l-3 5-1 5h-1v-12h1z" fill="#82E6F4"/>
<path transform="translate(442,434)" d="m0 0 2 4-9 6-3-1 2-1-2-2 9-5z" fill="#1AB7E9"/>
<path transform="translate(795,375)" d="m0 0h2l-2 4-8 8-3-1 3-6 4-1z" fill="#68E3F2"/>
<path transform="translate(211,364)" d="m0 0 3 3-1 5-6 5v-4l3-5z" fill="#6FE4F3"/>
<path transform="translate(277,343)" d="m0 0 7 1v1l-7 2h-9l-2-2 1-1z" fill="#B0FEFB"/>
<path transform="translate(300,379)" d="m0 0 3 1 3 8v14h-1v-13h-2z" fill="#6FEBF4"/>
<path transform="translate(434,351)" d="m0 0 5 2 9 8v2l-4-2-5-4-5-5z" fill="#66E0F2"/>
<path transform="translate(950,345)" d="m0 0 4 1 4 8v2l-4-2-2-4-3-1z" fill="#7BEAF5"/>
<path transform="translate(104,381)" d="m0 0 2 1-2 10-3 1v-9z" fill="#98F6F9"/>
<path transform="translate(991,345)" d="m0 0h22l-2 2-10 1v-2h-10z" fill="#57D7F0"/>
<path transform="translate(760,343)" d="m0 0 11 2 2 2-7 1-6-2z" fill="#7CEBF5"/>
<path transform="translate(557,357)" d="m0 0 4 5 3 6v2l-4-2-3-6z" fill="#76E9F4"/>
<path transform="translate(941,345)" d="m0 0h8v3l-5 1-7-1v-2z" fill="#C1FEFC"/>
<path transform="translate(991,362)" d="m0 0h2l1 7-3 6h-1z" fill="#B0FEFB"/>
<path transform="translate(1024,359)" d="m0 0 2 3v9l-2 2-2-5z" fill="#B1FEFB"/>
<path transform="translate(1014,345)" d="m0 0h9l-3 3-7 1-2-1v-2z" fill="#B5FBFB"/>
<path transform="translate(406,467)" d="m0 0h2l6 13v2h-2l-6-13z" fill="#16B2E7"/>
<path transform="translate(575,433)" d="m0 0 3 1 1 4v9h-2z" fill="#2FC9EC"/>
<path transform="translate(419,376)" d="m0 0 4 2 2 3-1 3h-3l-2-4z" fill="#57E7F2"/>
<path transform="translate(211,483)" d="m0 0h1v10l-1 1h-11v-1l10-1z" fill="#1AB7E9"/>
<path transform="translate(827,363)" d="m0 0h2l-1 7h-2l-1 3h-1v-6z" fill="#81EEF6"/>
<path transform="translate(565,417)" d="m0 0 4 1 4 5-1 3-7-7z" fill="#48DDF0"/>
<path transform="translate(603,374)" d="m0 0 2 2-4 9h-1v-10z" fill="#99F6F9"/>
<path transform="translate(280,343)" d="m0 0h10l7 1v1l-13 1v-2z" fill="#65E1F2"/>
<path transform="translate(455,379)" d="m0 0h1l1 8v9h-1v-7h-2z" fill="#44CAEC"/>
</svg>
